<svg id="svg" version="1.1" xmlns="http://www.w3.org/2000/svg" xmlns:xlink="http://www.w3.org/1999/xlink" width="400" height="400" viewBox="0, 0, 400,400"><g id="svgg"><path id="path0" d="M130.800 8.000 L 130.800 16.000 108.200 16.000 L 85.600 16.000 85.600 28.200 L 85.600 40.400 75.400 40.400 L 65.200 40.400 65.200 50.800 L 65.200 61.200 52.800 61.200 L 40.400 61.200 40.400 73.400 L 40.400 85.600 30.200 85.600 L 20.000 85.600 20.000 106.200 L 20.000 126.800 10.000 126.800 L 0.000 126.800 0.000 195.600 L 0.000 264.400 10.000 264.400 L 20.000 264.400 20.000 287.000 L 20.000 309.600 30.200 309.600 L 40.400 309.600 40.400 320.200 L 40.400 330.800 52.800 330.800 L 65.200 330.800 65.200 343.000 L 65.200 355.200 75.400 355.200 L 85.600 355.200 85.600 365.600 L 85.600 376.000 108.200 376.000 L 130.800 376.000 130.800 388.000 L 130.800 400.000 200.000 400.000 L 269.200 400.000 269.200 388.000 L 269.200 376.000 291.800 376.000 L 314.400 376.000 314.400 365.600 L 314.400 355.200 324.600 355.200 L 334.800 355.200 334.800 343.000 L 334.800 330.800 347.200 330.800 L 359.600 330.800 359.600 320.200 L 359.600 309.600 369.800 309.600 L 380.000 309.600 380.000 287.000 L 380.000 264.400 390.000 264.400 L 400.000 264.400 400.000 195.600 L 400.000 126.800 390.000 126.800 L 380.000 126.800 380.000 106.200 L 380.000 85.600 369.800 85.600 L 359.600 85.600 359.600 73.400 L 359.600 61.200 347.200 61.200 L 334.800 61.200 334.800 50.800 L 334.800 40.400 324.600 40.400 L 314.400 40.400 314.400 28.200 L 314.400 16.000 291.800 16.000 L 269.200 16.000 269.200 8.000 L 269.200 0.000 200.000 0.000 L 130.800 0.000 130.800 8.000 M268.306 28.900 L 268.412 41.200 290.799 41.200 L 313.186 41.200 313.293 51.300 L 313.400 61.400 323.581 61.507 C 331.114 61.586,333.843 61.742,334.075 62.107 C 334.247 62.378,334.391 67.952,334.394 74.494 L 334.400 86.388 346.500 86.494 L 358.600 86.600 358.800 107.000 L 359.000 127.400 369.200 127.600 L 379.400 127.800 379.502 172.523 C 379.570 202.639,379.469 217.498,379.191 218.016 C 378.804 218.740,378.182 218.793,368.890 218.893 L 359.000 219.000 358.800 231.200 L 358.600 243.400 344.200 243.646 C 336.280 243.781,320.575 243.916,309.300 243.946 L 288.800 244.000 288.800 253.935 L 288.800 263.870 273.500 264.134 C 254.302 264.466,203.081 264.483,202.233 264.157 C 201.679 263.945,201.600 262.668,201.600 253.957 L 201.600 244.000 189.600 244.000 L 177.600 244.000 177.600 276.401 L 177.600 308.803 232.900 308.701 L 288.200 308.600 288.400 298.600 L 288.600 288.600 302.400 288.357 C 309.990 288.224,320.112 288.089,324.894 288.057 L 333.588 288.000 333.694 276.100 L 333.800 264.200 346.200 264.200 L 358.600 264.200 358.600 286.800 L 358.600 309.400 346.507 309.506 L 334.414 309.612 334.307 319.706 L 334.200 329.800 323.906 329.907 L 313.612 330.013 313.506 342.307 L 313.400 354.600 290.800 354.800 L 268.200 355.000 268.093 365.100 L 267.986 375.200 200.000 375.200 L 132.014 375.200 131.907 365.100 L 131.800 355.000 109.200 354.800 L 86.600 354.600 86.494 342.620 C 86.414 333.647,86.264 330.561,85.894 330.326 C 85.622 330.153,80.945 330.009,75.500 330.006 L 65.600 330.000 65.600 319.800 L 65.600 309.600 53.397 309.600 L 41.193 309.600 41.297 286.900 L 41.400 264.200 53.800 264.200 L 66.200 264.200 66.306 276.035 L 66.412 287.870 81.706 288.135 C 90.118 288.280,100.105 288.399,103.900 288.399 L 110.800 288.400 110.800 266.200 L 110.800 244.000 89.700 243.943 C 78.095 243.912,62.480 243.777,55.000 243.643 L 41.400 243.400 41.200 231.200 L 41.000 219.000 31.200 218.896 C 22.558 218.805,21.341 218.713,20.900 218.120 C 20.507 217.591,20.400 207.837,20.400 172.524 L 20.400 127.600 30.167 127.600 C 35.539 127.600,40.219 127.491,40.567 127.357 C 41.133 127.140,41.200 124.951,41.200 106.757 L 41.200 86.400 53.400 86.400 L 65.600 86.400 65.600 74.000 L 65.600 61.600 76.000 61.600 L 86.400 61.600 86.400 51.400 L 86.400 41.200 109.000 41.200 L 131.600 41.200 131.600 29.067 C 131.600 22.393,131.721 16.813,131.868 16.666 C 132.015 16.518,162.750 16.443,200.168 16.499 L 268.200 16.600 268.306 28.900 M112.000 231.000 L 112.000 242.800 144.600 242.800 L 177.200 242.800 177.200 231.000 L 177.200 219.200 144.600 219.200 L 112.000 219.200 112.000 231.000 " stroke="none" fill="#363838" fill-rule="evenodd"></path><path id="path1" d="M86.896 107.300 L 87.000 127.800 109.400 127.800 L 131.800 127.800 131.904 107.300 L 132.007 86.800 109.400 86.800 L 86.793 86.800 86.896 107.300 M132.080 243.680 C 131.734 244.026,131.600 246.809,131.600 253.680 L 131.600 263.200 121.808 263.200 L 112.015 263.200 111.796 264.100 C 111.675 264.595,111.626 270.400,111.688 277.000 L 111.800 289.000 121.700 289.107 L 131.600 289.214 131.600 299.207 L 131.600 309.200 144.400 309.200 L 157.200 309.200 157.200 299.200 L 157.200 289.200 167.200 289.200 L 177.200 289.200 177.200 276.443 C 177.200 265.179,177.126 263.657,176.567 263.443 C 176.219 263.309,171.719 263.200,166.567 263.200 L 157.200 263.200 157.200 253.614 C 157.200 244.546,157.158 244.006,156.426 243.614 C 155.267 242.994,132.705 243.055,132.080 243.680 M41.600 298.991 L 41.600 309.188 53.900 309.294 L 66.200 309.400 66.307 319.500 L 66.414 329.600 76.583 329.600 C 82.931 329.600,86.846 329.750,87.000 330.000 C 87.156 330.252,91.602 330.400,99.018 330.400 L 110.788 330.400 110.894 342.300 L 111.000 354.200 122.800 354.444 C 146.736 354.938,267.405 354.835,267.920 354.320 C 268.271 353.969,268.400 350.702,268.400 342.120 L 268.400 330.400 290.520 330.400 C 307.191 330.400,312.758 330.282,313.120 329.920 C 313.468 329.572,313.600 326.702,313.600 319.520 L 313.600 309.600 323.520 309.600 C 330.702 309.600,333.572 309.468,333.920 309.120 C 334.267 308.773,334.400 305.957,334.400 298.967 L 334.400 289.293 333.500 289.052 C 332.166 288.695,314.681 288.761,314.107 289.125 C 313.744 289.356,313.586 292.006,313.507 299.219 L 313.400 309.000 299.800 309.243 C 292.320 309.377,261.675 309.512,231.700 309.543 L 177.200 309.600 177.200 319.800 L 177.200 330.000 144.407 330.000 L 111.614 330.000 111.507 319.700 L 111.400 309.400 99.107 309.294 L 86.814 309.188 86.707 299.094 L 86.600 289.000 64.100 288.897 L 41.600 288.793 41.600 298.991 " stroke="none" fill="#cdc7e1" fill-rule="evenodd"></path><path id="path2" d="M132.306 29.100 L 132.200 41.400 109.500 41.503 L 86.800 41.607 86.800 51.603 L 86.800 61.600 109.353 61.600 L 131.907 61.600 132.148 62.500 C 132.281 62.995,132.392 68.572,132.395 74.894 L 132.400 86.388 144.700 86.494 L 157.000 86.600 157.111 106.400 C 157.172 117.290,157.123 126.605,157.003 127.100 L 156.785 128.000 144.592 128.000 L 132.400 128.000 132.394 139.900 C 132.391 146.445,132.244 152.027,132.068 152.303 C 131.816 152.700,126.969 152.785,109.174 152.703 L 86.600 152.600 86.494 140.500 C 86.436 133.845,86.346 128.363,86.294 128.317 C 86.242 128.272,81.610 128.137,76.000 128.017 L 65.800 127.800 65.696 107.300 L 65.593 86.800 53.600 86.800 L 41.607 86.800 41.504 107.500 L 41.400 128.200 31.300 128.307 L 21.200 128.414 21.200 163.000 L 21.200 197.586 31.300 197.693 L 41.400 197.800 41.507 208.094 L 41.613 218.388 53.907 218.494 L 66.200 218.600 66.306 230.700 L 66.412 242.800 88.606 242.800 L 110.800 242.800 110.800 230.814 C 110.800 219.350,110.834 218.810,111.578 218.412 C 112.104 218.130,122.915 218.029,144.878 218.098 L 177.400 218.200 177.506 230.442 L 177.611 242.684 199.788 242.977 C 211.985 243.138,222.152 243.153,222.382 243.011 C 222.658 242.841,222.800 238.675,222.800 230.780 L 222.800 218.807 245.300 218.703 L 267.800 218.600 267.907 208.300 L 268.014 198.000 277.958 198.000 C 285.789 198.000,287.997 197.886,288.348 197.463 C 288.660 197.086,288.824 190.321,288.897 174.763 L 289.000 152.600 301.100 152.494 L 313.200 152.388 313.200 107.200 L 313.200 62.012 300.900 61.906 L 288.600 61.800 288.493 51.707 L 288.386 41.613 278.093 41.507 L 267.800 41.400 267.694 29.100 L 267.588 16.800 200.000 16.800 L 132.412 16.800 132.306 29.100 M76.400 62.389 L 66.600 62.600 66.494 74.500 L 66.388 86.400 76.394 86.400 L 86.400 86.400 86.400 74.200 C 86.400 67.490,86.355 62.040,86.300 62.089 C 86.245 62.138,81.790 62.273,76.400 62.389 " stroke="none" fill="#f33424" fill-rule="evenodd"></path><path id="path3" d="M86.989 62.900 C 86.886 63.175,86.757 68.620,86.701 75.000 L 86.600 86.600 76.600 86.800 L 66.600 87.000 66.600 107.000 L 66.600 127.000 76.168 127.107 C 82.406 127.177,85.921 127.368,86.268 127.656 C 86.689 128.006,86.800 130.592,86.800 140.049 L 86.800 152.000 109.200 152.000 L 131.600 152.000 131.600 140.374 C 131.600 133.124,131.756 128.456,132.014 127.974 C 132.409 127.236,132.971 127.200,144.214 127.200 L 156.000 127.200 156.000 107.006 L 156.000 86.812 143.900 86.706 L 131.800 86.600 131.694 74.500 L 131.588 62.400 109.382 62.400 C 91.982 62.400,87.135 62.508,86.989 62.900 M131.904 107.300 L 131.800 127.800 109.400 127.800 L 87.000 127.800 86.896 107.300 L 86.793 86.800 109.400 86.800 L 132.007 86.800 131.904 107.300 " stroke="none" fill="#f48c8c" fill-rule="evenodd"></path><path id="path4" d="M131.781 16.904 C 131.675 17.182,131.636 22.807,131.694 29.404 L 131.801 41.400 132.000 28.900 C 132.110 22.025,132.149 16.400,132.087 16.400 C 132.026 16.400,131.888 16.627,131.781 16.904 M268.000 28.920 L 268.199 41.400 268.306 29.226 C 268.364 22.530,268.274 16.914,268.106 16.746 C 267.938 16.577,267.890 22.055,268.000 28.920 M86.493 51.300 L 86.400 61.600 76.000 61.600 L 65.600 61.600 65.600 73.994 L 65.600 86.388 53.300 86.503 L 41.000 86.618 53.400 86.609 L 65.800 86.600 65.906 74.300 L 66.012 62.000 76.218 62.000 C 84.092 62.000,86.470 61.884,86.620 61.493 C 86.727 61.214,86.763 56.489,86.700 50.993 L 86.585 41.000 86.493 51.300 M288.700 41.482 L 289.600 41.656 289.600 51.416 L 289.600 61.177 301.300 61.386 C 307.735 61.502,317.632 61.693,323.294 61.811 L 333.588 62.026 333.694 74.313 L 333.800 86.600 346.096 86.706 L 358.393 86.812 358.496 107.306 L 358.600 127.800 368.800 128.000 L 379.000 128.200 379.102 162.722 C 379.171 186.064,379.070 197.496,378.788 198.022 C 378.394 198.759,377.873 198.800,368.986 198.800 L 359.600 198.800 359.587 208.100 C 359.569 220.512,361.124 219.200,346.436 219.200 L 334.800 219.200 334.800 231.000 L 334.800 242.800 312.076 242.800 C 292.716 242.800,289.238 242.887,288.576 243.387 C 287.946 243.864,286.019 243.977,278.300 243.987 L 268.800 244.000 268.800 253.320 C 268.800 260.036,268.666 262.774,268.320 263.120 C 267.954 263.486,260.036 263.600,235.120 263.600 L 202.400 263.600 202.400 253.624 C 202.400 248.137,202.265 243.569,202.100 243.472 C 201.935 243.376,191.720 243.219,179.400 243.122 C 167.080 243.026,161.545 243.007,167.100 243.080 C 173.361 243.163,177.200 243.363,177.200 243.607 C 177.200 243.856,181.673 244.000,189.400 244.000 L 201.600 244.000 201.600 253.957 C 201.600 262.668,201.679 263.945,202.233 264.157 C 203.081 264.483,254.302 264.466,273.500 264.134 L 288.800 263.870 288.800 253.935 L 288.800 244.000 309.300 243.946 C 320.575 243.916,336.280 243.781,344.200 243.646 L 358.600 243.400 358.800 231.200 L 359.000 219.000 368.890 218.893 C 378.182 218.793,378.804 218.740,379.191 218.016 C 379.469 217.498,379.570 202.639,379.502 172.523 L 379.400 127.800 369.200 127.600 L 359.000 127.400 358.800 107.000 L 358.600 86.600 346.500 86.494 L 334.400 86.388 334.394 74.494 C 334.391 67.952,334.247 62.378,334.075 62.107 C 333.843 61.742,331.114 61.586,323.581 61.507 L 313.400 61.400 313.293 51.300 L 313.186 41.200 300.493 41.254 C 293.512 41.284,288.205 41.387,288.700 41.482 M30.500 127.500 L 20.400 127.614 20.400 172.530 C 20.400 207.838,20.507 217.591,20.900 218.120 C 21.341 218.713,22.558 218.805,31.200 218.896 L 41.000 219.000 41.200 231.200 L 41.400 243.400 55.000 243.643 C 62.480 243.777,78.095 243.912,89.700 243.943 L 110.800 244.000 110.890 254.100 L 110.980 264.200 111.190 253.800 L 111.400 243.400 121.800 243.190 L 132.200 242.980 122.100 242.890 L 112.000 242.800 112.000 231.000 L 112.000 219.200 144.624 219.200 C 166.271 219.200,177.164 219.065,177.000 218.800 C 176.702 218.319,112.462 218.246,111.706 218.726 C 111.336 218.961,111.186 222.047,111.106 231.020 L 111.000 243.000 89.000 243.111 C 76.900 243.171,66.595 243.123,66.100 243.003 L 65.200 242.785 65.200 230.992 L 65.200 219.200 53.489 219.200 C 38.805 219.200,40.400 220.541,40.400 208.195 L 40.400 198.800 30.843 198.800 C 22.497 198.800,21.255 198.720,21.043 198.167 C 20.909 197.819,20.800 181.889,20.800 162.767 L 20.800 128.000 31.000 128.000 C 37.533 128.000,41.200 127.856,41.200 127.600 C 41.200 127.380,41.065 127.242,40.900 127.293 C 40.735 127.344,36.055 127.437,30.500 127.500 M41.383 264.499 C 41.276 264.780,41.238 270.317,41.300 276.805 L 41.413 288.600 41.506 276.500 L 41.600 264.400 53.600 264.400 L 65.600 264.400 65.600 276.157 C 65.600 286.509,65.676 287.943,66.233 288.157 C 66.581 288.291,71.340 288.400,76.809 288.400 C 83.007 288.400,86.846 288.551,87.000 288.800 C 87.156 289.052,91.604 289.200,99.024 289.200 C 106.608 289.200,110.800 289.058,110.800 288.800 C 110.800 288.549,108.233 288.400,103.900 288.399 C 100.105 288.399,90.118 288.280,81.706 288.135 L 66.412 287.870 66.306 276.035 L 66.200 264.200 53.890 264.094 C 44.199 264.011,41.538 264.097,41.383 264.499 M333.872 264.261 C 333.723 264.411,333.600 269.813,333.600 276.267 L 333.600 288.000 324.900 288.057 C 320.115 288.089,309.990 288.224,302.400 288.357 L 288.600 288.600 288.400 298.600 L 288.200 308.600 232.800 308.802 L 177.400 309.004 233.057 309.102 C 283.498 309.191,288.737 309.141,288.957 308.567 C 289.091 308.219,289.200 303.719,289.200 298.567 L 289.200 289.200 300.976 289.200 C 308.396 289.200,312.844 289.052,313.000 288.800 C 313.154 288.551,316.993 288.400,323.191 288.400 C 328.660 288.400,333.419 288.291,333.767 288.157 C 334.324 287.943,334.400 286.509,334.400 276.157 L 334.400 264.400 346.394 264.400 L 358.389 264.400 358.503 276.800 L 358.617 289.200 358.609 276.700 L 358.600 264.200 346.372 264.094 C 339.647 264.036,334.022 264.111,333.872 264.261 M334.267 309.467 C 334.120 309.613,334.000 314.200,334.000 319.660 L 334.000 329.586 324.200 329.704 L 314.400 329.821 324.300 329.811 L 334.200 329.800 334.307 319.706 L 334.414 309.612 346.507 309.500 L 358.600 309.388 346.567 309.294 C 339.948 309.242,334.413 309.320,334.267 309.467 M65.774 319.800 C 65.775 325.520,65.831 327.804,65.899 324.876 C 65.968 321.948,65.967 317.268,65.899 314.476 C 65.830 311.684,65.774 314.080,65.774 319.800 M85.990 330.263 C 86.256 330.395,86.400 334.652,86.400 342.410 C 86.400 348.978,86.535 354.436,86.700 354.539 C 86.865 354.641,86.910 349.221,86.800 342.495 C 86.645 333.032,86.485 330.243,86.090 330.163 C 85.809 330.106,85.764 330.151,85.990 330.263 M313.200 342.480 C 313.090 349.235,313.138 354.623,313.306 354.454 C 313.474 354.286,313.564 348.760,313.506 342.174 L 313.399 330.200 313.200 342.480 " stroke="none" fill="#84524e" fill-rule="evenodd"></path><path id="path5" d="M132.268 16.666 C 132.121 16.813,132.000 22.392,132.000 29.063 L 132.000 41.193 109.300 41.302 L 86.600 41.410 109.400 41.405 L 132.200 41.400 132.306 29.100 L 132.412 16.800 200.000 16.800 L 267.588 16.800 267.694 29.100 L 267.800 41.400 277.900 41.411 L 288.000 41.421 278.006 41.304 L 268.012 41.186 267.906 28.893 L 267.800 16.600 200.168 16.499 C 162.970 16.443,132.415 16.518,132.268 16.666 M288.493 51.700 L 288.600 61.800 300.900 61.906 L 313.200 62.012 313.200 107.200 L 313.200 152.388 301.100 152.494 L 289.000 152.600 288.897 174.763 C 288.824 190.321,288.660 197.086,288.348 197.463 C 287.997 197.886,285.789 198.000,277.958 198.000 L 268.014 198.000 267.907 208.300 L 267.800 218.600 245.300 218.703 L 222.800 218.807 222.800 230.780 C 222.800 238.675,222.658 242.841,222.382 243.011 C 222.152 243.153,211.985 243.138,199.788 242.977 L 177.611 242.684 177.506 230.442 L 177.400 218.200 144.878 218.098 C 122.915 218.029,112.104 218.130,111.578 218.412 C 110.834 218.810,110.800 219.350,110.800 230.814 L 110.800 242.800 88.606 242.800 L 66.412 242.800 66.306 230.700 L 66.200 218.600 53.907 218.494 L 41.613 218.388 41.507 208.094 L 41.400 197.800 31.300 197.693 L 21.200 197.586 21.200 163.000 L 21.200 128.414 31.300 128.307 L 41.400 128.200 41.406 107.400 L 41.411 86.600 41.302 107.300 L 41.193 128.000 30.996 128.000 L 20.800 128.000 20.800 162.767 C 20.800 181.889,20.909 197.819,21.043 198.167 C 21.255 198.720,22.497 198.800,30.843 198.800 L 40.400 198.800 40.400 208.195 C 40.400 220.541,38.805 219.200,53.489 219.200 L 65.200 219.200 65.200 230.992 L 65.200 242.785 66.100 243.003 C 66.595 243.123,76.900 243.171,89.000 243.111 L 111.000 243.000 111.106 230.906 L 111.212 218.812 112.106 218.596 C 112.598 218.477,127.400 218.429,145.000 218.490 L 177.000 218.600 177.200 230.800 L 177.400 243.000 189.800 243.200 L 202.200 243.400 202.307 253.500 L 202.414 263.600 235.127 263.600 C 260.037 263.600,267.954 263.486,268.320 263.120 C 268.666 262.774,268.800 260.036,268.800 253.320 L 268.800 244.000 278.300 243.987 C 286.019 243.977,287.946 243.864,288.576 243.387 C 289.238 242.887,292.716 242.800,312.076 242.800 L 334.800 242.800 334.800 231.000 L 334.800 219.200 346.436 219.200 C 361.124 219.200,359.569 220.512,359.587 208.100 L 359.600 198.800 368.986 198.800 C 377.873 198.800,378.394 198.759,378.788 198.022 C 379.070 197.496,379.171 186.064,379.102 162.722 L 379.000 128.200 368.800 128.000 L 358.600 127.800 358.496 107.306 L 358.393 86.812 346.096 86.706 L 333.800 86.600 333.694 74.313 L 333.588 62.026 323.294 61.811 C 317.632 61.693,307.735 61.502,301.300 61.386 L 289.600 61.177 289.600 51.388 C 289.600 42.905,289.519 41.600,288.993 41.600 C 288.464 41.600,288.400 42.891,288.493 51.700 M65.911 74.400 C 65.850 81.220,65.932 86.800,66.094 86.800 C 66.256 86.800,66.436 81.355,66.494 74.700 L 66.600 62.600 76.400 62.389 L 86.200 62.179 76.111 62.089 L 66.022 62.000 65.911 74.400 " stroke="none" fill="#c42c1c" fill-rule="evenodd"></path><path id="path6" d="M121.800 243.162 L 111.400 243.400 111.156 255.000 C 111.021 261.380,110.886 271.685,110.856 277.900 L 110.800 289.200 99.024 289.200 C 91.604 289.200,87.156 289.052,87.000 288.800 C 86.846 288.551,83.007 288.400,76.809 288.400 C 71.340 288.400,66.581 288.291,66.233 288.157 C 65.676 287.943,65.600 286.509,65.600 276.157 L 65.600 264.400 53.656 264.400 L 41.712 264.400 41.416 286.575 C 41.254 298.771,41.240 308.941,41.384 309.175 C 41.561 309.460,45.653 309.600,53.824 309.600 L 66.000 309.600 66.000 319.793 L 66.000 329.986 76.300 330.093 L 86.600 330.200 86.800 342.400 L 87.000 354.600 109.493 354.703 L 131.986 354.807 132.093 364.903 L 132.200 375.000 200.000 375.000 L 267.800 375.000 267.907 364.903 L 268.014 354.807 290.507 354.703 L 313.000 354.600 313.103 342.600 C 313.194 331.888,313.278 330.546,313.879 330.100 C 314.375 329.732,317.122 329.600,324.270 329.600 L 333.986 329.600 334.093 319.500 L 334.200 309.400 346.565 309.294 L 358.930 309.188 358.665 294.129 C 358.519 285.846,358.400 275.769,358.400 271.735 L 358.400 264.400 346.400 264.400 L 334.400 264.400 334.400 276.157 C 334.400 286.509,334.324 287.943,333.767 288.157 C 333.419 288.291,328.660 288.400,323.191 288.400 C 316.993 288.400,313.154 288.551,313.000 288.800 C 312.844 289.052,308.396 289.200,300.976 289.200 L 289.200 289.200 289.200 298.567 C 289.200 303.719,289.091 308.219,288.957 308.567 C 288.737 309.140,283.449 309.200,233.157 309.200 L 177.600 309.200 177.594 276.700 C 177.591 258.825,177.455 243.992,177.294 243.738 C 176.942 243.185,138.301 242.783,121.800 243.162 M156.426 243.614 C 157.158 244.006,157.200 244.546,157.200 253.614 L 157.200 263.200 166.567 263.200 C 171.719 263.200,176.219 263.309,176.567 263.443 C 177.126 263.657,177.200 265.179,177.200 276.443 L 177.200 289.200 167.200 289.200 L 157.200 289.200 157.200 299.200 L 157.200 309.200 144.400 309.200 L 131.600 309.200 131.600 299.207 L 131.600 289.214 121.700 289.107 L 111.800 289.000 111.688 277.000 C 111.626 270.400,111.675 264.595,111.796 264.100 L 112.015 263.200 121.808 263.200 L 131.600 263.200 131.600 253.680 C 131.600 246.809,131.734 244.026,132.080 243.680 C 132.705 243.055,155.267 242.994,156.426 243.614 M86.707 299.094 L 86.814 309.188 99.107 309.294 L 111.400 309.400 111.507 319.700 L 111.614 330.000 144.407 330.000 L 177.200 330.000 177.200 319.800 L 177.200 309.600 231.700 309.543 C 261.675 309.512,292.320 309.377,299.800 309.243 L 313.400 309.000 313.507 299.219 C 313.586 292.006,313.744 289.356,314.107 289.125 C 314.681 288.761,332.166 288.695,333.500 289.052 L 334.400 289.293 334.400 298.967 C 334.400 305.957,334.267 308.773,333.920 309.120 C 333.572 309.468,330.702 309.600,323.520 309.600 L 313.600 309.600 313.600 319.520 C 313.600 326.702,313.468 329.572,313.120 329.920 C 312.758 330.282,307.191 330.400,290.520 330.400 L 268.400 330.400 268.400 342.120 C 268.400 350.702,268.271 353.969,267.920 354.320 C 267.405 354.835,146.736 354.938,122.800 354.444 L 111.000 354.200 110.894 342.300 L 110.788 330.400 99.018 330.400 C 91.602 330.400,87.156 330.252,87.000 330.000 C 86.846 329.750,82.931 329.600,76.583 329.600 L 66.414 329.600 66.307 319.500 L 66.200 309.400 53.900 309.294 L 41.600 309.188 41.600 298.991 L 41.600 288.793 64.100 288.897 L 86.600 289.000 86.707 299.094 " stroke="none" fill="#8c889c" fill-rule="evenodd"></path><path id="path7" d="M86.800 62.297 C 86.800 62.464,96.880 62.552,109.200 62.493 L 131.600 62.387 131.600 74.370 C 131.600 80.960,131.735 86.436,131.900 86.539 C 132.065 86.641,132.110 81.206,132.000 74.462 L 131.800 62.200 109.300 62.097 C 96.925 62.040,86.800 62.130,86.800 62.297 M66.267 87.067 C 65.933 87.400,65.910 126.101,66.243 126.967 C 66.455 127.520,67.707 127.600,76.163 127.600 C 83.339 127.600,85.985 127.729,86.401 128.100 C 86.877 128.525,86.882 128.496,86.438 127.907 C 85.970 127.289,84.871 127.202,76.257 127.107 L 66.600 127.000 66.600 106.900 C 66.600 95.845,66.585 86.800,66.567 86.800 C 66.548 86.800,66.413 86.920,66.267 87.067 M156.000 107.000 L 156.000 127.200 144.224 127.200 C 137.747 127.200,132.364 127.335,132.262 127.500 C 132.159 127.665,137.549 127.750,144.238 127.689 L 156.400 127.577 156.400 107.189 C 156.400 95.975,156.310 86.800,156.200 86.800 C 156.090 86.800,156.000 95.890,156.000 107.000 M131.694 140.097 L 131.600 151.993 109.100 152.100 L 86.600 152.207 109.113 152.303 C 126.940 152.380,131.665 152.295,131.819 151.895 C 131.925 151.617,131.962 146.172,131.900 139.795 L 131.787 128.200 131.694 140.097 " stroke="none" fill="#f47574" fill-rule="evenodd"></path><path id="path8" d="M86.667 61.867 C 86.520 62.013,86.400 67.593,86.400 74.267 L 86.400 86.400 76.500 86.406 C 71.055 86.409,66.373 86.556,66.096 86.732 C 65.700 86.984,65.615 91.392,65.696 107.426 L 65.800 127.800 76.000 128.017 C 81.610 128.137,86.242 128.272,86.294 128.317 C 86.346 128.363,86.436 133.845,86.494 140.500 L 86.600 152.600 109.174 152.703 C 126.969 152.785,131.816 152.700,132.068 152.303 C 132.244 152.027,132.391 146.445,132.394 139.900 L 132.400 128.000 144.592 128.000 L 156.785 128.000 157.003 127.100 C 157.123 126.605,157.172 117.290,157.111 106.400 L 157.000 86.600 144.706 86.494 L 132.412 86.388 132.297 74.694 L 132.182 63.000 132.191 74.800 L 132.200 86.600 144.300 86.706 L 156.400 86.812 156.400 107.200 L 156.400 127.588 144.300 127.694 L 132.200 127.800 132.000 140.000 L 131.800 152.200 109.300 152.303 L 86.800 152.407 86.800 140.483 C 86.800 131.743,86.672 128.432,86.320 128.080 C 85.973 127.733,83.148 127.600,76.128 127.600 L 66.415 127.600 66.197 126.700 C 66.077 126.205,66.028 117.070,66.089 106.400 L 66.200 87.000 76.400 86.800 L 86.600 86.600 86.706 74.293 L 86.812 61.987 109.406 62.093 C 121.833 62.152,132.000 62.065,132.000 61.900 C 132.000 61.529,87.037 61.496,86.667 61.867 " stroke="none" fill="#f4645c" fill-rule="evenodd"></path></g></svg>