<svg id="svg" version="1.1" xmlns="http://www.w3.org/2000/svg" xmlns:xlink="http://www.w3.org/1999/xlink" width="400" height="399.21875" viewBox="0, 0, 400,399.21875"><g id="svgg"><path id="path0" d="M195.405 55.756 C 195.075 55.853,192.288 56.118,189.211 56.345 C 182.240 56.860,176.765 57.603,171.728 58.720 C 170.684 58.952,168.976 59.331,167.932 59.563 C 166.888 59.795,165.448 60.084,164.732 60.206 C 164.015 60.328,163.330 60.588,163.209 60.783 C 163.089 60.979,162.609 61.139,162.143 61.139 C 161.243 61.139,158.902 61.803,157.748 62.387 C 157.366 62.580,156.702 62.737,156.273 62.737 C 155.843 62.737,155.381 62.917,155.245 63.137 C 155.109 63.357,154.646 63.536,154.217 63.536 C 153.787 63.536,153.123 63.700,152.742 63.901 C 152.360 64.101,149.466 65.289,146.311 66.540 C 138.915 69.473,124.228 77.033,122.677 78.707 C 122.567 78.825,121.983 79.177,121.379 79.489 C 120.774 79.800,120.280 80.205,120.280 80.387 C 120.280 80.570,120.076 80.719,119.827 80.719 C 119.282 80.719,111.213 86.758,107.294 90.097 C 100.071 96.253,91.170 105.642,85.615 112.967 C 83.053 116.344,76.723 125.694,76.723 126.100 C 76.723 126.238,76.375 126.840,75.949 127.438 C 71.506 133.678,63.710 152.562,60.759 164.236 C 60.565 165.005,60.224 166.354,60.003 167.233 C 59.627 168.726,59.136 171.120,58.326 175.425 C 57.583 179.370,57.163 182.542,57.056 185.015 L 56.943 187.612 100.549 187.714 C 135.147 187.795,144.231 187.712,144.525 187.314 C 144.728 187.039,145.115 185.914,145.385 184.815 C 151.292 160.735,176.765 141.875,201.598 143.194 C 216.713 143.997,228.569 148.960,238.846 158.784 C 246.714 166.306,254.945 180.557,254.945 186.659 C 254.945 187.843,254.682 187.837,300.899 187.722 L 345.055 187.612 344.963 186.613 C 344.272 179.067,342.419 168.914,340.513 162.238 C 340.294 161.469,339.997 160.390,339.854 159.840 C 339.711 159.291,339.452 158.482,339.280 158.042 C 339.107 157.602,338.574 155.984,338.094 154.446 C 337.614 152.907,337.068 151.289,336.879 150.849 C 336.691 150.410,336.054 148.791,335.464 147.253 C 332.903 140.575,327.327 129.335,324.828 125.812 C 324.415 125.229,324.076 124.638,324.076 124.498 C 324.076 124.215,319.291 116.996,318.896 116.683 C 318.757 116.573,318.211 115.854,317.684 115.085 C 312.817 107.983,303.038 97.467,294.905 90.588 C 293.037 89.008,291.419 87.613,291.309 87.489 C 290.460 86.527,276.499 76.723,275.978 76.723 C 275.883 76.723,274.575 75.975,273.070 75.061 C 270.315 73.388,261.042 68.757,257.729 67.401 C 256.747 67.000,255.495 66.481,254.945 66.249 C 254.396 66.017,253.497 65.650,252.947 65.434 C 252.398 65.218,251.636 64.883,251.254 64.689 C 250.873 64.495,250.234 64.336,249.836 64.336 C 249.437 64.336,248.940 64.187,248.731 64.006 C 248.522 63.824,247.542 63.444,246.553 63.161 C 245.564 62.878,244.396 62.502,243.956 62.325 C 243.516 62.149,242.707 61.888,242.158 61.745 C 241.608 61.602,240.529 61.305,239.760 61.085 C 231.342 58.683,222.507 57.091,213.387 56.333 C 207.942 55.880,196.258 55.506,195.405 55.756 " stroke="none" fill="#f81313" fill-rule="evenodd"></path><path id="path1" d="M195.205 167.117 C 192.778 167.571,190.322 168.200,189.111 168.677 C 187.009 169.505,185.969 169.947,185.260 170.314 C 170.124 178.154,163.612 194.768,169.239 211.189 C 172.070 219.453,183.281 230.569,188.783 230.569 C 189.102 230.569,189.462 230.729,189.582 230.923 C 190.268 232.033,199.494 232.964,203.796 232.358 C 207.254 231.871,208.351 231.634,211.384 230.725 C 212.619 230.354,218.023 227.536,218.581 226.971 C 218.691 226.860,219.411 226.300,220.180 225.727 C 224.965 222.163,229.788 215.262,231.319 209.790 C 231.596 208.801,232.007 207.394,232.232 206.663 C 232.995 204.184,232.722 195.165,231.776 191.608 C 228.905 180.818,221.641 172.867,210.789 168.635 C 206.394 166.920,199.726 166.271,195.205 167.117 M54.931 212.211 C 54.787 212.443,54.792 213.117,54.941 213.709 C 55.090 214.301,55.384 216.224,55.595 217.982 C 56.277 223.691,57.614 230.830,58.738 234.765 C 58.989 235.644,59.341 236.993,59.521 237.762 C 59.995 239.783,61.153 243.442,61.575 244.250 C 61.775 244.632,61.938 245.219,61.938 245.554 C 61.938 245.890,62.102 246.477,62.302 246.859 C 62.503 247.240,63.695 250.160,64.953 253.347 C 67.153 258.924,71.032 266.954,73.542 271.129 C 74.203 272.228,74.861 273.397,75.005 273.726 C 78.128 280.880,94.090 299.680,104.895 308.929 C 110.478 313.708,123.096 322.877,124.091 322.877 C 124.223 322.877,125.083 323.382,126.002 324.000 C 128.097 325.408,138.124 330.514,141.059 331.667 C 142.268 332.141,143.796 332.765,144.456 333.053 C 145.115 333.340,146.733 333.970,148.052 334.452 C 149.371 334.934,150.762 335.494,151.143 335.696 C 151.525 335.898,152.189 336.064,152.618 336.064 C 153.048 336.064,153.511 336.244,153.646 336.464 C 153.782 336.683,154.245 336.863,154.674 336.863 C 155.104 336.863,155.768 337.021,156.149 337.214 C 157.304 337.797,159.645 338.462,160.544 338.462 C 161.010 338.462,161.490 338.621,161.611 338.817 C 161.732 339.012,162.417 339.272,163.133 339.394 C 163.849 339.516,165.290 339.806,166.334 340.038 C 175.506 342.076,179.460 342.621,190.657 343.393 C 200.909 344.100,212.656 343.491,223.377 341.697 C 227.214 341.055,232.314 339.965,234.765 339.263 C 235.644 339.011,236.813 338.715,237.363 338.603 C 237.912 338.492,238.721 338.256,239.161 338.077 C 239.600 337.899,240.769 337.536,241.758 337.269 C 242.747 337.003,243.869 336.623,244.250 336.425 C 244.632 336.226,245.219 336.064,245.554 336.064 C 245.890 336.064,246.477 335.905,246.859 335.711 C 247.789 335.237,249.254 334.648,250.949 334.065 C 251.718 333.801,253.157 333.220,254.146 332.775 C 255.135 332.331,256.304 331.834,256.743 331.671 C 258.569 330.996,271.658 324.275,273.199 323.221 C 274.118 322.592,274.979 322.078,275.112 322.078 C 275.396 322.078,282.621 317.276,282.917 316.890 C 283.027 316.748,284.016 316.025,285.115 315.285 C 286.214 314.544,287.203 313.835,287.313 313.707 C 287.423 313.580,288.501 312.677,289.710 311.700 C 299.040 304.164,307.830 295.026,315.091 285.315 C 316.323 283.666,317.591 282.001,317.907 281.614 C 318.223 281.227,318.482 280.814,318.482 280.697 C 318.482 280.579,319.372 279.164,320.460 277.552 C 321.548 275.939,322.790 273.994,323.219 273.229 C 323.649 272.464,324.242 271.409,324.538 270.884 C 324.833 270.359,325.168 269.840,325.282 269.730 C 325.680 269.346,329.591 261.512,330.868 258.541 C 332.816 254.007,333.315 252.831,333.707 251.848 C 333.904 251.354,334.234 250.544,334.439 250.050 C 334.644 249.555,335.041 248.432,335.320 247.552 C 335.599 246.673,335.971 245.783,336.146 245.574 C 336.320 245.366,336.464 244.869,336.464 244.470 C 336.464 244.072,336.626 243.433,336.824 243.052 C 337.023 242.670,337.400 241.548,337.662 240.559 C 337.925 239.570,338.302 238.449,338.500 238.067 C 338.699 237.686,338.861 236.842,338.861 236.193 C 338.861 235.543,339.041 234.901,339.261 234.765 C 339.481 234.629,339.660 233.935,339.660 233.223 C 339.660 232.511,339.822 231.757,340.019 231.548 C 340.216 231.340,340.477 230.450,340.598 229.570 C 340.719 228.691,341.008 226.983,341.240 225.774 C 342.232 220.604,342.541 218.195,342.597 215.185 L 342.657 211.988 299.144 211.988 C 260.868 211.988,255.595 212.060,255.327 212.587 C 255.159 212.917,254.805 213.996,254.539 214.985 C 254.272 215.974,253.914 217.143,253.741 217.582 C 253.568 218.022,253.202 219.011,252.927 219.780 C 247.394 235.240,233.271 248.691,217.322 253.692 C 211.160 255.625,205.577 256.543,200.000 256.543 C 194.416 256.543,188.863 255.628,182.617 253.679 C 168.558 249.290,156.922 239.392,149.523 225.529 C 147.716 222.144,145.055 214.977,145.055 213.496 C 145.055 213.084,144.839 212.531,144.575 212.268 C 143.930 211.623,55.329 211.566,54.931 212.211 " stroke="none" fill="#f7f7f7" fill-rule="evenodd"></path><path id="path2" d="M184.815 27.627 C 182.617 27.798,179.381 28.122,177.622 28.348 C 175.864 28.573,173.437 28.859,172.228 28.983 C 171.019 29.108,169.670 29.370,169.231 29.567 C 168.791 29.764,167.667 30.025,166.733 30.147 C 162.877 30.652,161.822 30.871,161.612 31.211 C 161.491 31.408,160.683 31.568,159.817 31.568 C 158.950 31.568,158.242 31.748,158.242 31.968 C 158.242 32.188,157.522 32.368,156.643 32.368 C 155.764 32.368,155.045 32.547,155.045 32.767 C 155.045 32.987,154.426 33.167,153.670 33.167 C 152.914 33.167,152.184 33.347,152.048 33.566 C 151.912 33.786,151.450 33.966,151.020 33.966 C 150.590 33.966,149.927 34.134,149.545 34.339 C 149.163 34.544,147.997 34.943,146.953 35.226 C 145.909 35.508,145.055 35.879,145.055 36.051 C 145.055 36.223,144.515 36.364,143.856 36.364 C 143.197 36.364,142.657 36.543,142.657 36.763 C 142.657 36.983,142.118 37.163,141.459 37.163 C 140.799 37.163,140.260 37.343,140.260 37.562 C 140.260 37.782,139.720 37.962,139.061 37.962 C 138.402 37.962,137.862 38.142,137.862 38.362 C 137.862 38.581,137.502 38.761,137.063 38.761 C 136.623 38.761,136.264 38.941,136.264 39.161 C 136.264 39.381,135.724 39.560,135.065 39.560 C 134.406 39.560,133.866 39.740,133.866 39.960 C 133.866 40.180,133.506 40.360,133.067 40.360 C 132.627 40.360,132.268 40.539,132.268 40.759 C 132.268 40.979,131.818 41.159,131.269 41.159 C 130.719 41.159,130.270 41.339,130.270 41.558 C 130.270 41.778,129.910 41.958,129.471 41.958 C 129.031 41.958,128.671 42.138,128.671 42.358 C 128.671 42.577,128.312 42.757,127.872 42.757 C 127.433 42.757,127.073 42.937,127.073 43.157 C 127.073 43.377,126.713 43.556,126.274 43.556 C 125.834 43.556,125.475 43.736,125.475 43.956 C 125.475 44.176,125.115 44.356,124.675 44.356 C 124.236 44.356,123.876 44.535,123.876 44.755 C 123.876 44.975,123.604 45.155,123.272 45.155 C 122.445 45.155,116.860 47.840,114.813 49.222 C 113.894 49.842,112.950 50.350,112.715 50.350 C 112.480 50.350,112.288 50.529,112.288 50.749 C 112.288 50.969,112.010 51.149,111.672 51.149 C 111.333 51.149,110.669 51.508,110.198 51.948 C 109.726 52.388,109.104 52.747,108.816 52.747 C 108.528 52.747,108.292 52.927,108.292 53.147 C 108.292 53.367,108.056 53.546,107.768 53.546 C 107.479 53.546,106.858 53.906,106.386 54.346 C 105.914 54.785,105.290 55.145,105.000 55.145 C 104.710 55.145,104.213 55.504,103.896 55.944 C 103.579 56.384,103.117 56.743,102.868 56.743 C 102.620 56.743,101.852 57.283,101.162 57.942 C 100.472 58.601,99.676 59.141,99.393 59.141 C 99.109 59.141,98.619 59.500,98.302 59.940 C 97.985 60.380,97.568 60.739,97.375 60.739 C 97.182 60.739,96.520 61.279,95.904 61.938 C 95.288 62.597,94.579 63.137,94.328 63.137 C 93.862 63.137,93.344 63.508,91.775 64.967 C 91.284 65.424,90.547 65.985,90.137 66.215 C 88.472 67.146,71.528 83.480,71.528 84.153 C 71.528 84.271,70.669 85.210,69.619 86.240 C 68.569 87.269,67.268 88.741,66.727 89.510 C 66.186 90.280,65.247 91.430,64.640 92.067 C 64.033 92.704,63.536 93.402,63.536 93.619 C 63.536 93.835,63.203 94.303,62.796 94.658 C 62.389 95.014,61.733 95.934,61.339 96.703 C 60.944 97.473,60.288 98.393,59.881 98.748 C 59.474 99.104,59.141 99.598,59.141 99.847 C 59.141 100.096,58.991 100.300,58.809 100.300 C 58.626 100.300,58.223 100.794,57.912 101.399 C 57.602 102.003,57.032 102.788,56.646 103.144 C 56.260 103.499,55.944 104.044,55.944 104.354 C 55.944 104.665,55.584 105.178,55.145 105.495 C 54.705 105.811,54.346 106.351,54.346 106.693 C 54.346 107.036,53.986 107.575,53.546 107.892 C 53.107 108.209,52.747 108.788,52.747 109.179 C 52.747 109.570,52.567 109.890,52.348 109.890 C 52.128 109.890,51.948 110.210,51.948 110.601 C 51.948 110.992,51.588 111.571,51.149 111.888 C 50.709 112.205,50.350 112.784,50.350 113.175 C 50.350 113.566,50.170 113.886,49.950 113.886 C 49.730 113.886,49.550 114.246,49.550 114.685 C 49.550 115.125,49.416 115.486,49.251 115.488 C 49.086 115.489,48.748 115.894,48.499 116.387 C 48.251 116.880,47.037 119.228,45.802 121.607 C 44.567 123.985,43.556 126.367,43.556 126.901 C 43.556 127.435,43.377 127.872,43.157 127.872 C 42.937 127.872,42.757 128.232,42.757 128.671 C 42.757 129.111,42.577 129.471,42.358 129.471 C 42.138 129.471,41.958 129.830,41.958 130.270 C 41.958 130.709,41.778 131.069,41.558 131.069 C 41.339 131.069,41.159 131.429,41.159 131.868 C 41.159 132.308,40.979 132.667,40.759 132.667 C 40.539 132.667,40.360 133.207,40.360 133.866 C 40.360 134.525,40.180 135.065,39.960 135.065 C 39.740 135.065,39.560 135.425,39.560 135.864 C 39.560 136.304,39.381 136.663,39.161 136.663 C 38.941 136.663,38.761 137.113,38.761 137.662 C 38.761 138.212,38.581 138.661,38.362 138.661 C 38.142 138.661,37.962 139.201,37.962 139.860 C 37.962 140.519,37.782 141.059,37.562 141.059 C 37.343 141.059,37.163 141.498,37.163 142.034 C 37.163 142.571,36.983 143.121,36.763 143.257 C 36.543 143.393,36.364 143.932,36.364 144.456 C 36.364 144.979,36.184 145.519,35.964 145.654 C 35.744 145.790,35.564 146.330,35.564 146.853 C 35.564 147.377,35.385 147.916,35.165 148.052 C 34.945 148.188,34.765 148.828,34.765 149.474 C 34.765 150.121,34.605 150.649,34.409 150.649 C 34.073 150.649,33.956 151.098,33.335 154.745 C 33.194 155.569,32.919 156.244,32.724 156.244 C 32.528 156.244,32.368 156.952,32.368 157.819 C 32.368 158.685,32.188 159.505,31.968 159.640 C 31.748 159.776,31.568 160.596,31.568 161.462 C 31.568 162.328,31.389 163.037,31.169 163.037 C 30.949 163.037,30.769 163.936,30.769 165.035 C 30.769 166.134,30.606 167.033,30.407 167.033 C 30.060 167.033,29.851 168.348,29.359 173.626 C 29.236 174.945,28.969 176.384,28.767 176.823 C 28.117 178.235,27.905 183.665,27.881 199.600 C 27.858 214.332,27.991 216.981,29.175 225.375 C 29.407 227.023,29.698 229.316,29.821 230.470 C 29.943 231.623,30.207 232.567,30.407 232.567 C 30.606 232.567,30.769 233.467,30.769 234.565 C 30.769 235.664,30.949 236.563,31.169 236.563 C 31.389 236.563,31.568 237.283,31.568 238.162 C 31.568 239.041,31.748 239.760,31.968 239.760 C 32.188 239.760,32.368 240.569,32.368 241.558 C 32.368 242.547,32.547 243.357,32.767 243.357 C 32.987 243.357,33.167 243.896,33.167 244.555 C 33.167 245.215,33.347 245.754,33.566 245.754 C 33.786 245.754,33.966 246.474,33.966 247.353 C 33.966 248.232,34.146 248.951,34.366 248.951 C 34.585 248.951,34.765 249.491,34.765 250.150 C 34.765 250.809,34.945 251.349,35.165 251.349 C 35.385 251.349,35.564 251.888,35.564 252.547 C 35.564 253.207,35.744 253.746,35.964 253.746 C 36.184 253.746,36.364 254.286,36.364 254.945 C 36.364 255.604,36.543 256.144,36.763 256.144 C 36.983 256.144,37.163 256.683,37.163 257.343 C 37.163 258.002,37.343 258.541,37.562 258.541 C 37.782 258.541,37.962 258.980,37.962 259.517 C 37.962 260.053,38.142 260.603,38.362 260.739 C 38.581 260.875,38.761 261.335,38.761 261.762 C 38.761 262.188,38.941 262.537,39.161 262.537 C 39.381 262.537,39.560 262.987,39.560 263.536 C 39.560 264.086,39.740 264.535,39.960 264.535 C 40.180 264.535,40.360 264.974,40.360 265.511 C 40.360 266.047,40.539 266.597,40.759 266.733 C 40.979 266.869,41.159 267.329,41.159 267.756 C 41.159 268.182,41.339 268.531,41.558 268.531 C 41.778 268.531,41.958 268.891,41.958 269.331 C 41.958 269.770,42.138 270.130,42.358 270.130 C 42.577 270.130,42.757 270.490,42.757 270.929 C 42.757 271.369,42.917 271.728,43.112 271.728 C 43.308 271.728,43.583 272.345,43.725 273.100 C 43.866 273.854,44.726 275.877,45.635 277.595 C 46.545 279.313,47.483 281.122,47.720 281.615 C 47.958 282.108,48.287 282.513,48.452 282.514 C 48.616 282.516,48.751 282.877,48.751 283.317 C 48.751 283.756,48.931 284.116,49.151 284.116 C 49.371 284.116,49.550 284.476,49.550 284.915 C 49.550 285.355,49.708 285.714,49.902 285.714 C 50.095 285.714,50.476 286.254,50.749 286.913 C 51.022 287.572,51.404 288.112,51.597 288.112 C 51.790 288.112,51.948 288.472,51.948 288.911 C 51.948 289.351,52.128 289.710,52.348 289.710 C 52.567 289.710,52.747 289.946,52.747 290.234 C 52.747 290.523,53.062 291.107,53.447 291.533 C 53.831 291.959,54.401 292.802,54.713 293.407 C 55.025 294.011,55.429 294.505,55.612 294.505 C 55.795 294.505,55.944 294.825,55.944 295.216 C 55.944 295.608,56.304 296.187,56.743 296.503 C 57.183 296.820,57.542 297.310,57.542 297.591 C 57.542 297.872,57.684 298.102,57.856 298.102 C 58.028 298.102,58.484 298.635,58.869 299.286 C 59.254 299.938,59.809 300.711,60.102 301.004 C 60.396 301.297,60.918 302.068,61.264 302.717 C 61.610 303.365,62.442 304.525,63.113 305.295 C 63.784 306.064,64.334 306.846,64.335 307.032 C 64.335 307.219,64.837 307.848,65.450 308.431 C 66.063 309.014,67.000 310.111,67.533 310.870 C 69.878 314.211,87.011 331.284,89.309 332.570 C 89.694 332.786,90.654 333.570,91.441 334.313 C 92.229 335.056,93.071 335.664,93.312 335.664 C 93.553 335.664,94.395 336.249,95.184 336.963 C 97.595 339.146,99.280 340.445,99.712 340.452 C 99.938 340.456,100.382 340.819,100.699 341.259 C 101.016 341.698,101.471 342.058,101.711 342.058 C 101.951 342.058,102.496 342.373,102.922 342.757 C 103.348 343.142,104.191 343.712,104.795 344.024 C 105.400 344.335,105.894 344.740,105.894 344.923 C 105.894 345.105,106.214 345.255,106.605 345.255 C 106.996 345.255,107.575 345.614,107.892 346.054 C 108.209 346.494,108.788 346.853,109.179 346.853 C 109.570 346.853,109.890 347.011,109.890 347.204 C 109.890 347.397,110.430 347.779,111.089 348.052 C 111.748 348.325,112.288 348.707,112.288 348.900 C 112.288 349.093,112.632 349.251,113.054 349.251 C 113.475 349.251,113.879 349.386,113.953 349.550 C 114.246 350.209,122.307 354.446,123.268 354.446 C 123.602 354.446,123.876 354.625,123.876 354.845 C 123.876 355.065,124.236 355.245,124.675 355.245 C 125.115 355.245,125.475 355.425,125.475 355.644 C 125.475 355.864,125.834 356.044,126.274 356.044 C 126.713 356.044,127.073 356.224,127.073 356.444 C 127.073 356.663,127.345 356.843,127.678 356.843 C 128.010 356.843,128.595 357.011,128.976 357.217 C 129.358 357.422,130.255 357.826,130.969 358.113 C 131.683 358.401,132.268 358.773,132.268 358.939 C 132.268 359.105,132.707 359.241,133.243 359.241 C 133.780 359.241,134.330 359.421,134.466 359.640 C 134.601 359.860,135.062 360.040,135.488 360.040 C 135.915 360.040,136.264 360.220,136.264 360.440 C 136.264 360.659,136.703 360.839,137.239 360.839 C 137.776 360.839,138.326 361.019,138.462 361.239 C 138.597 361.459,139.058 361.638,139.484 361.638 C 139.911 361.638,140.260 361.818,140.260 362.038 C 140.260 362.258,140.799 362.438,141.459 362.438 C 142.118 362.438,142.657 362.617,142.657 362.837 C 142.657 363.057,143.197 363.237,143.856 363.237 C 144.515 363.237,145.055 363.417,145.055 363.636 C 145.055 363.856,145.594 364.036,146.254 364.036 C 146.913 364.036,147.453 364.216,147.453 364.436 C 147.453 364.655,147.992 364.835,148.651 364.835 C 149.311 364.835,149.850 365.015,149.850 365.235 C 149.850 365.455,150.480 365.634,151.249 365.634 C 152.018 365.634,152.647 365.814,152.647 366.034 C 152.647 366.254,153.176 366.434,153.823 366.434 C 154.469 366.434,155.097 366.594,155.219 366.791 C 155.340 366.988,156.115 367.247,156.941 367.368 C 159.792 367.785,161.242 368.088,162.038 368.434 C 162.804 368.767,164.169 369.020,167.632 369.469 C 168.511 369.583,169.590 369.837,170.030 370.033 C 170.470 370.230,171.818 370.493,173.027 370.617 C 174.236 370.741,176.663 371.024,178.422 371.245 C 187.331 372.366,203.428 372.702,213.586 371.978 C 216.444 371.774,220.130 371.509,221.778 371.388 C 223.427 371.267,224.946 371.002,225.155 370.799 C 225.364 370.596,226.477 370.430,227.629 370.430 C 228.781 370.430,229.834 370.250,229.970 370.030 C 230.106 369.810,231.095 369.630,232.168 369.630 C 233.241 369.630,234.230 369.451,234.366 369.231 C 234.501 369.011,235.321 368.831,236.187 368.831 C 237.054 368.831,237.762 368.651,237.762 368.432 C 237.762 368.212,238.561 368.032,239.537 368.032 C 240.513 368.032,241.423 367.852,241.558 367.632 C 241.694 367.413,242.414 367.233,243.157 367.233 C 243.900 367.233,244.619 367.053,244.755 366.833 C 244.891 366.613,245.531 366.434,246.177 366.434 C 246.824 366.434,247.353 366.254,247.353 366.034 C 247.353 365.814,247.982 365.634,248.751 365.634 C 249.520 365.634,250.150 365.455,250.150 365.235 C 250.150 365.015,250.689 364.835,251.349 364.835 C 252.008 364.835,252.547 364.655,252.547 364.436 C 252.547 364.216,253.087 364.036,253.746 364.036 C 254.406 364.036,254.945 363.856,254.945 363.636 C 254.945 363.417,255.485 363.237,256.144 363.237 C 256.803 363.237,257.343 363.057,257.343 362.837 C 257.343 362.617,257.882 362.438,258.541 362.438 C 259.201 362.438,259.740 362.258,259.740 362.038 C 259.740 361.818,260.089 361.638,260.516 361.638 C 260.942 361.638,261.403 361.459,261.538 361.239 C 261.674 361.019,262.224 360.839,262.761 360.839 C 263.297 360.839,263.736 360.659,263.736 360.440 C 263.736 360.220,264.186 360.040,264.735 360.040 C 265.285 360.040,265.734 359.860,265.734 359.640 C 265.734 359.421,266.184 359.241,266.733 359.241 C 267.283 359.241,267.734 359.106,267.735 358.941 C 267.740 358.536,269.716 357.642,270.609 357.642 C 271.005 357.642,271.329 357.463,271.329 357.243 C 271.329 357.023,271.688 356.843,272.128 356.843 C 272.567 356.843,272.927 356.663,272.927 356.444 C 272.927 356.224,273.287 356.044,273.726 356.044 C 274.166 356.044,274.525 355.864,274.525 355.644 C 274.525 355.425,274.885 355.245,275.325 355.245 C 275.764 355.245,276.124 355.065,276.124 354.845 C 276.124 354.625,276.410 354.446,276.760 354.446 C 277.499 354.446,284.651 350.840,284.848 350.368 C 284.922 350.193,285.236 350.050,285.548 350.050 C 285.859 350.050,286.114 349.870,286.114 349.650 C 286.114 349.431,286.474 349.251,286.913 349.251 C 287.353 349.251,287.712 349.093,287.712 348.900 C 287.712 348.707,288.252 348.325,288.911 348.052 C 289.570 347.779,290.110 347.397,290.110 347.204 C 290.110 347.011,290.430 346.853,290.821 346.853 C 291.212 346.853,291.791 346.494,292.108 346.054 C 292.425 345.614,292.964 345.255,293.307 345.255 C 293.649 345.255,294.189 344.895,294.505 344.456 C 294.822 344.016,295.362 343.656,295.704 343.656 C 296.047 343.656,296.586 343.297,296.903 342.857 C 297.220 342.418,297.759 342.058,298.102 342.058 C 298.444 342.058,298.984 341.698,299.301 341.259 C 299.618 340.819,300.080 340.460,300.329 340.460 C 300.577 340.460,301.345 339.920,302.035 339.261 C 302.725 338.601,303.383 338.062,303.497 338.062 C 303.610 338.062,304.268 337.522,304.958 336.863 C 305.648 336.204,306.411 335.664,306.653 335.664 C 306.895 335.664,307.880 334.945,308.842 334.066 C 309.804 333.187,310.723 332.468,310.885 332.468 C 311.047 332.468,312.377 331.299,313.841 329.870 C 315.305 328.442,316.598 327.273,316.713 327.273 C 316.998 327.273,327.672 316.546,327.672 316.259 C 327.672 316.134,328.531 315.190,329.581 314.160 C 330.631 313.130,331.928 311.658,332.463 310.889 C 332.998 310.120,333.937 309.014,334.550 308.431 C 335.163 307.848,335.665 307.219,335.665 307.032 C 335.666 306.846,336.216 306.064,336.887 305.295 C 337.558 304.525,338.394 303.357,338.743 302.697 C 339.093 302.038,339.668 301.229,340.022 300.899 C 340.376 300.569,340.919 299.805,341.229 299.201 C 341.539 298.596,341.943 298.102,342.125 298.102 C 342.308 298.102,342.458 297.872,342.458 297.591 C 342.458 297.310,342.817 296.820,343.257 296.503 C 343.696 296.187,344.056 295.608,344.056 295.216 C 344.056 294.825,344.205 294.505,344.388 294.505 C 344.571 294.505,344.975 294.011,345.287 293.407 C 345.599 292.802,346.169 291.959,346.553 291.533 C 346.938 291.107,347.253 290.523,347.253 290.234 C 347.253 289.946,347.433 289.710,347.652 289.710 C 347.872 289.710,348.052 289.351,348.052 288.911 C 348.052 288.472,348.232 288.112,348.452 288.112 C 348.671 288.112,348.851 287.876,348.851 287.588 C 348.851 287.300,349.211 286.678,349.650 286.206 C 350.090 285.734,350.450 285.071,350.450 284.732 C 350.450 284.393,350.629 284.116,350.849 284.116 C 351.069 284.116,351.249 283.756,351.249 283.317 C 351.249 282.877,351.384 282.516,351.548 282.514 C 351.713 282.513,352.046 282.108,352.287 281.615 C 352.529 281.122,353.470 279.270,354.380 277.499 C 355.289 275.728,356.148 273.705,356.288 273.003 C 356.429 272.302,356.701 271.728,356.893 271.728 C 357.085 271.728,357.243 271.369,357.243 270.929 C 357.243 270.490,357.423 270.130,357.642 270.130 C 357.862 270.130,358.042 269.770,358.042 269.331 C 358.042 268.891,358.222 268.531,358.442 268.531 C 358.661 268.531,358.841 268.182,358.841 267.756 C 358.841 267.329,359.021 266.869,359.241 266.733 C 359.461 266.597,359.640 266.047,359.640 265.511 C 359.640 264.974,359.820 264.535,360.040 264.535 C 360.260 264.535,360.440 264.086,360.440 263.536 C 360.440 262.987,360.619 262.537,360.839 262.537 C 361.059 262.537,361.239 262.188,361.239 261.762 C 361.239 261.335,361.419 260.875,361.638 260.739 C 361.858 260.603,362.038 260.053,362.038 259.517 C 362.038 258.980,362.218 258.541,362.438 258.541 C 362.657 258.541,362.837 258.002,362.837 257.343 C 362.837 256.683,363.017 256.144,363.237 256.144 C 363.457 256.144,363.636 255.604,363.636 254.945 C 363.636 254.286,363.816 253.746,364.036 253.746 C 364.256 253.746,364.436 253.207,364.436 252.547 C 364.436 251.888,364.615 251.349,364.835 251.349 C 365.055 251.349,365.235 250.809,365.235 250.150 C 365.235 249.491,365.415 248.951,365.634 248.951 C 365.854 248.951,366.034 248.232,366.034 247.353 C 366.034 246.474,366.214 245.754,366.434 245.754 C 366.653 245.754,366.833 245.215,366.833 244.555 C 366.833 243.896,367.013 243.357,367.233 243.357 C 367.453 243.357,367.632 242.547,367.632 241.558 C 367.632 240.569,367.812 239.760,368.032 239.760 C 368.252 239.760,368.432 239.041,368.432 238.162 C 368.432 237.283,368.611 236.563,368.831 236.563 C 369.051 236.563,369.231 235.664,369.231 234.565 C 369.231 233.467,369.394 232.567,369.593 232.567 C 369.793 232.567,370.057 231.623,370.179 230.470 C 370.302 229.316,370.593 227.023,370.825 225.375 C 372.009 216.981,372.142 214.332,372.119 199.600 C 372.095 183.665,371.883 178.235,371.233 176.823 C 371.031 176.384,370.764 174.945,370.641 173.626 C 370.149 168.348,369.940 167.033,369.593 167.033 C 369.394 167.033,369.231 166.134,369.231 165.035 C 369.231 163.936,369.051 163.037,368.831 163.037 C 368.611 163.037,368.432 162.328,368.432 161.462 C 368.432 160.596,368.252 159.776,368.032 159.640 C 367.812 159.505,367.632 158.685,367.632 157.819 C 367.632 156.952,367.453 156.244,367.233 156.244 C 367.013 156.244,366.833 155.715,366.833 155.069 C 366.833 154.422,366.653 153.782,366.434 153.646 C 366.214 153.511,366.034 152.781,366.034 152.024 C 366.034 151.268,365.854 150.649,365.634 150.649 C 365.415 150.649,365.235 150.121,365.235 149.474 C 365.235 148.828,365.055 148.188,364.835 148.052 C 364.615 147.916,364.436 147.377,364.436 146.853 C 364.436 146.330,364.256 145.790,364.036 145.654 C 363.816 145.519,363.636 144.968,363.636 144.432 C 363.636 143.895,363.457 143.457,363.237 143.457 C 363.017 143.457,362.837 142.917,362.837 142.258 C 362.837 141.598,362.657 141.059,362.438 141.059 C 362.218 141.059,362.038 140.519,362.038 139.860 C 362.038 139.201,361.858 138.661,361.638 138.661 C 361.419 138.661,361.239 138.212,361.239 137.662 C 361.239 137.113,361.059 136.663,360.839 136.663 C 360.619 136.663,360.440 136.304,360.440 135.864 C 360.440 135.425,360.260 135.065,360.040 135.065 C 359.820 135.065,359.640 134.525,359.640 133.866 C 359.640 133.207,359.461 132.667,359.241 132.667 C 359.021 132.667,358.841 132.308,358.841 131.868 C 358.841 131.429,358.661 131.069,358.442 131.069 C 358.222 131.069,358.042 130.709,358.042 130.270 C 358.042 129.830,357.862 129.471,357.642 129.471 C 357.423 129.471,357.243 129.122,357.243 128.695 C 357.243 128.268,357.063 127.808,356.843 127.672 C 356.623 127.536,356.444 127.056,356.444 126.605 C 356.444 125.705,351.371 115.766,350.803 115.551 C 350.608 115.478,350.450 115.073,350.450 114.652 C 350.450 114.231,350.270 113.886,350.050 113.886 C 349.830 113.886,349.650 113.609,349.650 113.270 C 349.650 112.931,349.291 112.268,348.851 111.796 C 348.412 111.324,348.052 110.702,348.052 110.414 C 348.052 110.126,347.872 109.890,347.652 109.890 C 347.433 109.890,347.253 109.570,347.253 109.179 C 347.253 108.788,346.893 108.209,346.454 107.892 C 346.014 107.575,345.654 107.036,345.654 106.693 C 345.654 106.351,345.295 105.811,344.855 105.495 C 344.416 105.178,344.056 104.665,344.056 104.354 C 344.056 104.044,343.740 103.499,343.354 103.144 C 342.968 102.788,342.398 102.003,342.088 101.399 C 341.777 100.794,341.374 100.300,341.191 100.300 C 341.009 100.300,340.859 100.096,340.859 99.847 C 340.859 99.598,340.544 99.104,340.160 98.748 C 339.775 98.393,339.114 97.473,338.690 96.703 C 338.266 95.934,337.591 95.014,337.191 94.658 C 336.791 94.303,336.464 93.835,336.464 93.619 C 336.464 93.402,335.967 92.704,335.360 92.067 C 334.753 91.430,333.814 90.280,333.273 89.510 C 332.732 88.741,331.431 87.269,330.381 86.240 C 329.331 85.210,328.472 84.271,328.472 84.153 C 328.472 83.480,311.528 67.146,309.863 66.215 C 309.453 65.985,308.716 65.424,308.225 64.967 C 306.656 63.508,306.138 63.137,305.672 63.137 C 305.421 63.137,304.712 62.597,304.096 61.938 C 303.480 61.279,302.818 60.739,302.625 60.739 C 302.432 60.739,302.015 60.380,301.698 59.940 C 301.381 59.500,300.937 59.140,300.711 59.140 C 300.485 59.139,299.670 58.600,298.901 57.942 C 298.132 57.284,297.317 56.745,297.091 56.744 C 296.865 56.744,296.421 56.384,296.104 55.944 C 295.787 55.504,295.290 55.145,295.000 55.145 C 294.710 55.145,294.086 54.785,293.614 54.346 C 293.142 53.906,292.521 53.546,292.232 53.546 C 291.944 53.546,291.708 53.367,291.708 53.147 C 291.708 52.927,291.388 52.747,290.997 52.747 C 290.606 52.747,290.027 52.388,289.710 51.948 C 289.393 51.508,288.814 51.149,288.423 51.149 C 288.032 51.149,287.712 50.969,287.712 50.749 C 287.712 50.529,287.520 50.350,287.285 50.350 C 287.050 50.350,286.106 49.844,285.187 49.225 C 284.268 48.607,282.438 47.607,281.119 47.002 C 279.800 46.398,278.409 45.735,278.027 45.529 C 277.646 45.323,277.061 45.155,276.729 45.155 C 276.396 45.155,276.124 44.975,276.124 44.755 C 276.124 44.535,275.764 44.356,275.325 44.356 C 274.885 44.356,274.525 44.176,274.525 43.956 C 274.525 43.736,274.166 43.556,273.726 43.556 C 273.287 43.556,272.927 43.377,272.927 43.157 C 272.927 42.937,272.567 42.757,272.128 42.757 C 271.688 42.757,271.329 42.577,271.329 42.358 C 271.329 42.138,270.969 41.958,270.529 41.958 C 270.090 41.958,269.730 41.778,269.730 41.558 C 269.730 41.339,269.281 41.159,268.731 41.159 C 268.182 41.159,267.732 40.979,267.732 40.759 C 267.732 40.539,267.373 40.360,266.933 40.360 C 266.494 40.360,266.134 40.180,266.134 39.960 C 266.134 39.740,265.594 39.560,264.935 39.560 C 264.276 39.560,263.736 39.381,263.736 39.161 C 263.736 38.941,263.377 38.761,262.937 38.761 C 262.498 38.761,262.138 38.581,262.138 38.362 C 262.138 38.142,261.598 37.962,260.939 37.962 C 260.280 37.962,259.740 37.782,259.740 37.562 C 259.740 37.343,259.301 37.163,258.765 37.163 C 258.228 37.163,257.678 36.983,257.542 36.763 C 257.407 36.543,256.867 36.364,256.344 36.364 C 255.820 36.364,255.281 36.184,255.145 35.964 C 255.009 35.744,254.470 35.564,253.946 35.564 C 253.423 35.564,252.883 35.385,252.747 35.165 C 252.611 34.945,252.072 34.765,251.548 34.765 C 251.025 34.765,250.485 34.585,250.350 34.366 C 250.214 34.146,249.674 33.966,249.151 33.966 C 248.627 33.966,248.088 33.786,247.952 33.566 C 247.816 33.347,247.086 33.167,246.330 33.167 C 245.574 33.167,244.955 32.987,244.955 32.767 C 244.955 32.547,244.236 32.368,243.357 32.368 C 242.478 32.368,241.758 32.188,241.758 31.968 C 241.758 31.748,241.039 31.568,240.160 31.568 C 239.281 31.568,238.561 31.389,238.561 31.169 C 238.561 30.949,237.878 30.769,237.043 30.769 C 236.208 30.769,235.354 30.606,235.145 30.406 C 234.936 30.207,233.866 29.942,232.767 29.818 C 231.668 29.694,229.870 29.488,228.771 29.360 C 227.672 29.233,226.414 28.965,225.974 28.765 C 225.534 28.565,223.916 28.309,222.378 28.198 C 220.839 28.086,217.423 27.826,214.785 27.620 C 209.143 27.178,190.543 27.183,184.815 27.627 M210.390 55.544 C 216.703 56.121,222.044 56.742,224.575 57.196 C 231.885 58.504,234.068 58.972,239.461 60.385 C 240.395 60.630,241.518 60.969,241.958 61.139 C 242.398 61.309,243.566 61.668,244.555 61.938 C 246.405 62.443,247.831 62.965,249.046 63.583 C 249.427 63.777,250.014 63.936,250.350 63.936 C 250.685 63.936,251.272 64.095,251.654 64.289 C 252.340 64.638,253.697 65.208,255.445 65.881 C 257.773 66.777,258.768 67.235,264.935 70.252 C 272.598 74.000,284.138 80.826,285.315 82.305 C 285.425 82.443,286.144 82.988,286.913 83.516 C 287.682 84.045,288.402 84.576,288.511 84.696 C 288.621 84.817,289.880 85.806,291.309 86.894 C 299.746 93.322,309.895 103.706,316.748 112.924 C 317.224 113.563,318.258 114.942,319.046 115.987 C 319.834 117.033,320.480 118.067,320.480 118.285 C 320.480 118.503,320.629 118.681,320.812 118.681 C 320.994 118.681,321.399 119.176,321.711 119.780 C 322.023 120.385,322.592 121.228,322.977 121.654 C 323.362 122.080,323.676 122.664,323.676 122.952 C 323.676 123.241,323.856 123.477,324.076 123.477 C 324.296 123.477,324.476 123.638,324.476 123.835 C 324.476 124.033,325.223 125.424,326.137 126.928 C 328.023 130.034,332.712 139.156,333.810 141.858 C 334.212 142.847,334.779 144.196,335.070 144.855 C 335.361 145.514,335.900 146.863,336.268 147.852 C 336.636 148.841,337.082 150.010,337.260 150.450 C 337.437 150.889,337.798 151.878,338.062 152.647 C 338.326 153.417,338.683 154.406,338.856 154.845 C 339.028 155.285,339.390 156.454,339.660 157.443 C 339.930 158.432,340.297 159.600,340.475 160.040 C 340.653 160.480,340.890 161.289,341.001 161.838 C 341.112 162.388,341.408 163.556,341.658 164.436 C 341.909 165.315,342.199 166.484,342.305 167.033 C 342.410 167.582,342.653 168.661,342.846 169.431 C 344.494 175.998,345.948 187.177,345.262 188.003 C 344.456 188.974,256.351 188.922,255.276 187.950 C 254.874 187.586,254.545 187.015,254.545 186.680 C 254.545 185.980,253.815 183.547,253.298 182.523 C 253.105 182.141,252.947 181.554,252.947 181.219 C 252.947 180.883,252.787 180.296,252.591 179.915 C 252.395 179.533,251.836 178.322,251.349 177.223 C 250.230 174.701,250.189 174.622,247.690 170.185 C 247.395 169.660,247.057 169.141,246.939 169.031 C 246.822 168.921,245.837 167.572,244.751 166.034 C 242.613 163.005,237.218 157.387,234.965 155.843 C 234.196 155.315,233.477 154.772,233.367 154.635 C 229.974 150.405,215.639 145.054,204.454 143.840 C 181.551 141.356,156.085 156.845,148.255 178.022 C 147.802 179.245,147.000 181.140,146.607 181.913 C 146.413 182.294,146.254 183.048,146.254 183.587 C 146.254 184.127,146.074 184.679,145.854 184.815 C 145.634 184.951,145.455 185.555,145.455 186.157 C 145.455 188.313,147.678 188.212,100.420 188.212 L 56.344 188.212 56.369 187.113 C 56.445 183.795,57.768 175.082,59.145 168.831 C 59.387 167.732,59.685 166.247,59.807 165.531 C 59.929 164.814,60.188 164.130,60.384 164.009 C 60.579 163.888,60.739 163.408,60.739 162.942 C 60.739 162.169,61.181 160.517,61.942 158.442 C 62.104 158.002,62.806 155.844,63.503 153.646 C 64.201 151.449,64.925 149.291,65.112 148.851 C 65.300 148.412,65.727 147.423,66.062 146.653 C 66.397 145.884,67.058 144.266,67.530 143.057 C 68.629 140.247,73.703 130.107,74.737 128.656 C 75.170 128.047,75.524 127.429,75.524 127.283 C 75.524 127.137,76.064 126.233,76.723 125.275 C 77.383 124.316,77.922 123.340,77.922 123.105 C 77.922 122.870,78.102 122.677,78.322 122.677 C 78.541 122.677,78.721 122.441,78.721 122.153 C 78.721 121.865,79.081 121.243,79.520 120.771 C 79.960 120.300,80.320 119.760,80.320 119.573 C 80.320 119.385,80.642 118.883,81.036 118.457 C 81.429 118.031,82.363 116.783,83.110 115.684 C 89.166 106.774,104.015 91.286,111.246 86.337 C 111.709 86.020,112.178 85.652,112.288 85.518 C 112.398 85.385,113.117 84.844,113.886 84.316 C 114.655 83.787,115.375 83.241,115.485 83.101 C 115.792 82.709,125.417 76.324,125.701 76.324 C 125.838 76.324,126.428 75.985,127.011 75.571 C 128.981 74.174,137.718 69.619,141.858 67.830 C 142.627 67.498,144.109 66.845,145.150 66.380 C 146.192 65.915,147.228 65.534,147.454 65.534 C 147.679 65.534,148.175 65.376,148.557 65.181 C 150.910 63.985,158.112 61.488,161.439 60.717 C 162.208 60.539,163.556 60.187,164.436 59.936 C 165.315 59.686,166.753 59.324,167.632 59.133 C 168.511 58.941,170.040 58.592,171.029 58.355 C 174.870 57.437,181.279 56.521,187.812 55.955 C 190.559 55.718,193.077 55.459,193.407 55.380 C 194.756 55.059,206.295 55.170,210.390 55.544 M207.193 166.997 C 208.292 167.256,209.688 167.571,210.295 167.696 C 210.902 167.822,211.497 168.083,211.617 168.278 C 211.737 168.472,212.184 168.631,212.611 168.631 C 213.038 168.631,213.387 168.811,213.387 169.031 C 213.387 169.251,213.746 169.431,214.186 169.431 C 214.625 169.431,214.985 169.610,214.985 169.830 C 214.985 170.050,215.345 170.230,215.784 170.230 C 216.224 170.230,216.583 170.410,216.583 170.629 C 216.583 170.849,216.819 171.029,217.107 171.029 C 217.396 171.029,218.018 171.389,218.489 171.828 C 218.961 172.268,219.526 172.627,219.744 172.627 C 220.332 172.627,225.955 178.356,227.294 180.320 C 231.814 186.947,234.367 196.508,233.343 202.973 C 232.758 206.662,232.169 209.455,231.778 210.390 C 231.594 210.829,231.143 211.998,230.777 212.987 C 229.212 217.211,224.255 223.624,220.579 226.179 C 219.810 226.714,218.832 227.471,218.406 227.861 C 217.980 228.252,217.396 228.571,217.107 228.571 C 216.819 228.571,216.583 228.751,216.583 228.971 C 216.583 229.191,216.224 229.371,215.784 229.371 C 215.345 229.371,214.985 229.550,214.985 229.770 C 214.985 229.990,214.713 230.170,214.380 230.170 C 214.048 230.170,213.418 230.350,212.982 230.569 C 212.545 230.789,211.831 231.149,211.394 231.369 C 210.957 231.588,210.274 231.768,209.876 231.768 C 209.477 231.768,208.980 231.930,208.771 232.127 C 207.814 233.031,198.079 233.634,195.013 232.979 C 190.765 232.072,188.778 231.469,186.919 230.523 C 186.537 230.329,185.952 230.170,185.620 230.170 C 185.287 230.170,185.015 230.011,185.015 229.817 C 185.015 229.623,184.700 229.364,184.316 229.242 C 183.593 229.013,181.372 227.740,181.019 227.353 C 180.909 227.233,180.190 226.696,179.421 226.160 C 171.844 220.882,166.469 209.670,166.495 199.201 C 166.502 196.142,167.442 190.910,168.271 189.316 C 168.469 188.934,168.631 188.384,168.631 188.092 C 168.631 185.140,178.208 172.627,180.467 172.627 C 180.771 172.627,181.019 172.478,181.019 172.295 C 181.019 172.113,181.513 171.708,182.118 171.397 C 182.722 171.085,183.307 170.738,183.417 170.625 C 184.377 169.636,191.323 167.038,193.035 167.027 C 193.569 167.023,194.276 166.841,194.605 166.621 C 195.384 166.102,204.558 166.376,207.193 166.997 M144.975 211.469 C 145.239 211.732,145.455 212.441,145.455 213.043 C 145.455 213.646,145.634 214.250,145.854 214.386 C 146.074 214.521,146.254 215.151,146.254 215.784 C 146.254 216.418,146.434 217.047,146.653 217.183 C 146.873 217.319,147.053 217.869,147.053 218.405 C 147.053 218.942,147.233 219.381,147.453 219.381 C 147.672 219.381,147.852 219.830,147.852 220.380 C 147.852 220.929,148.032 221.379,148.252 221.379 C 148.472 221.379,148.651 221.728,148.651 222.154 C 148.651 222.581,148.831 223.041,149.051 223.177 C 149.271 223.313,149.451 223.773,149.451 224.199 C 149.451 224.626,149.609 224.975,149.804 224.975 C 149.998 224.975,150.260 225.290,150.385 225.674 C 150.838 227.057,154.174 232.298,156.026 234.537 C 159.123 238.280,162.118 241.334,164.236 242.908 C 165.005 243.479,165.904 244.220,166.234 244.554 C 166.563 244.887,167.328 245.414,167.932 245.725 C 168.536 246.035,169.031 246.438,169.031 246.621 C 169.031 246.804,169.228 246.953,169.469 246.953 C 169.710 246.953,170.439 247.332,171.089 247.795 C 174.609 250.301,182.387 253.263,190.010 254.998 C 193.100 255.702,207.180 255.726,209.890 255.032 C 210.934 254.764,212.642 254.345,213.686 254.100 C 219.250 252.796,228.740 248.516,231.527 246.054 C 231.962 245.669,232.488 245.355,232.696 245.355 C 232.903 245.355,233.364 245.038,233.719 244.651 C 234.075 244.264,235.084 243.412,235.962 242.758 C 238.431 240.918,245.754 232.860,245.754 231.983 C 245.754 231.846,246.114 231.349,246.553 230.877 C 246.993 230.405,247.353 229.783,247.353 229.495 C 247.353 229.207,247.532 228.971,247.752 228.971 C 247.972 228.971,248.152 228.799,248.152 228.589 C 248.152 228.379,248.691 227.292,249.351 226.174 C 250.010 225.056,250.549 223.879,250.549 223.559 C 250.549 223.239,250.729 222.977,250.949 222.977 C 251.169 222.977,251.349 222.705,251.349 222.372 C 251.349 222.040,251.528 221.410,251.748 220.974 C 251.968 220.537,252.328 219.823,252.547 219.386 C 252.767 218.949,252.947 218.318,252.947 217.982 C 252.947 217.646,253.109 217.060,253.308 216.678 C 253.506 216.296,253.883 215.175,254.146 214.186 C 254.408 213.197,254.760 212.118,254.927 211.788 C 255.195 211.261,260.557 211.189,299.544 211.189 L 343.856 211.189 343.780 212.587 C 343.738 213.357,343.507 215.514,343.268 217.383 C 343.029 219.251,342.740 221.678,342.626 222.777 C 342.512 223.876,342.259 225.135,342.063 225.574 C 341.868 226.014,341.600 227.093,341.468 227.972 C 341.336 228.851,341.126 230.246,341.001 231.071 C 340.877 231.897,340.614 232.672,340.417 232.793 C 340.221 232.915,340.060 233.622,340.060 234.366 C 340.060 235.109,339.880 235.828,339.660 235.964 C 339.441 236.100,339.261 236.592,339.261 237.058 C 339.261 237.958,338.596 240.299,338.013 241.453 C 337.820 241.835,337.662 242.498,337.662 242.928 C 337.662 243.358,337.483 243.820,337.263 243.956 C 337.043 244.092,336.863 244.631,336.863 245.155 C 336.863 245.678,336.683 246.218,336.464 246.354 C 336.244 246.489,336.064 246.952,336.064 247.382 C 336.064 247.811,335.897 248.475,335.694 248.857 C 335.490 249.238,334.664 251.259,333.858 253.347 C 333.052 255.435,331.852 258.312,331.192 259.740 C 330.532 261.169,329.785 262.787,329.532 263.337 C 329.279 263.886,328.978 264.426,328.864 264.535 C 328.749 264.645,328.033 265.994,327.273 267.532 C 326.512 269.071,325.797 270.420,325.682 270.529 C 325.292 270.905,324.027 273.126,323.805 273.826 C 323.683 274.211,323.424 274.525,323.230 274.525 C 323.036 274.525,322.877 274.761,322.877 275.050 C 322.877 275.338,322.517 275.960,322.078 276.431 C 321.638 276.903,321.279 277.443,321.279 277.630 C 321.279 277.818,320.964 278.320,320.579 278.746 C 320.195 279.172,319.625 280.015,319.313 280.619 C 319.001 281.224,318.597 281.718,318.414 281.718 C 318.231 281.718,318.080 281.943,318.077 282.218 C 318.074 282.493,317.714 283.167,317.277 283.716 C 316.840 284.266,315.449 286.073,314.185 287.733 C 308.856 294.736,297.232 306.768,291.508 311.206 C 289.750 312.570,287.935 314.024,287.475 314.438 C 287.015 314.851,286.205 315.419,285.677 315.700 C 285.148 315.980,284.446 316.497,284.116 316.849 C 283.786 317.200,283.022 317.742,282.418 318.052 C 281.813 318.363,281.319 318.766,281.319 318.949 C 281.319 319.131,281.131 319.281,280.902 319.281 C 280.673 319.281,280.100 319.640,279.628 320.080 C 279.156 320.519,278.535 320.879,278.246 320.879 C 277.958 320.879,277.722 321.029,277.722 321.211 C 277.722 321.394,277.228 321.792,276.623 322.096 C 276.019 322.400,275.075 322.948,274.525 323.315 C 270.961 325.693,257.592 332.457,256.444 332.464 C 256.059 332.466,255.744 332.647,255.744 332.867 C 255.744 333.087,255.472 333.267,255.139 333.267 C 254.807 333.267,254.222 333.426,253.841 333.620 C 253.459 333.814,252.607 334.194,251.948 334.466 C 251.289 334.737,250.437 335.117,250.055 335.311 C 249.674 335.505,249.010 335.664,248.580 335.664 C 248.151 335.664,247.688 335.844,247.552 336.064 C 247.417 336.284,246.867 336.464,246.330 336.464 C 245.794 336.464,245.355 336.643,245.355 336.863 C 245.355 337.083,244.826 337.263,244.179 337.263 C 243.533 337.263,242.893 337.443,242.757 337.662 C 242.621 337.882,242.082 338.062,241.558 338.062 C 241.035 338.062,240.495 338.242,240.360 338.462 C 240.224 338.681,239.594 338.861,238.961 338.861 C 238.328 338.861,237.698 339.041,237.562 339.261 C 237.427 339.481,236.707 339.660,235.964 339.660 C 235.221 339.660,234.513 339.821,234.392 340.018 C 234.270 340.214,233.495 340.472,232.670 340.591 C 231.844 340.710,230.270 341.008,229.171 341.254 C 214.259 344.588,194.601 345.205,178.222 342.854 C 173.286 342.146,170.822 341.717,169.031 341.257 C 168.042 341.002,166.513 340.700,165.634 340.586 C 164.755 340.471,163.865 340.216,163.656 340.019 C 163.448 339.822,162.784 339.660,162.181 339.660 C 161.579 339.660,160.975 339.481,160.839 339.261 C 160.703 339.041,160.074 338.861,159.441 338.861 C 158.807 338.861,158.178 338.681,158.042 338.462 C 157.906 338.242,157.266 338.062,156.620 338.062 C 155.973 338.062,155.445 337.882,155.445 337.662 C 155.445 337.443,154.905 337.263,154.246 337.263 C 153.586 337.263,153.047 337.083,153.047 336.863 C 153.047 336.643,152.507 336.464,151.848 336.464 C 151.189 336.464,150.649 336.284,150.649 336.064 C 150.649 335.844,150.287 335.664,149.845 335.664 C 149.402 335.664,148.728 335.505,148.346 335.311 C 147.965 335.117,147.113 334.737,146.454 334.466 C 145.794 334.194,144.942 333.814,144.561 333.620 C 144.179 333.426,143.689 333.267,143.472 333.267 C 142.553 333.267,128.246 326.279,126.238 324.850 C 125.641 324.424,125.039 324.076,124.902 324.076 C 124.599 324.076,114.968 317.668,114.685 317.278 C 114.575 317.127,114.067 316.782,113.555 316.512 C 113.043 316.243,112.324 315.778,111.956 315.479 C 111.589 315.180,109.221 313.261,106.693 311.214 C 99.483 305.375,89.669 295.347,84.645 288.685 C 83.495 287.161,82.322 285.676,82.037 285.386 C 81.752 285.096,81.518 284.719,81.518 284.549 C 81.518 284.379,81.069 283.718,80.520 283.079 C 79.971 282.441,79.521 281.708,79.521 281.452 C 79.521 281.195,79.372 280.926,79.190 280.852 C 78.727 280.666,74.725 274.653,74.725 274.144 C 74.725 273.914,74.566 273.726,74.372 273.726 C 74.178 273.726,73.916 273.412,73.791 273.027 C 73.665 272.642,73.017 271.429,72.352 270.330 C 70.868 267.880,66.159 258.356,65.285 256.038 C 64.934 255.107,64.307 253.583,63.892 252.652 C 63.477 251.720,63.137 250.697,63.137 250.378 C 63.137 250.058,62.957 249.686,62.737 249.550 C 62.517 249.415,62.338 248.875,62.338 248.352 C 62.338 247.828,62.158 247.289,61.938 247.153 C 61.718 247.017,61.538 246.467,61.538 245.930 C 61.538 245.394,61.359 244.955,61.139 244.955 C 60.919 244.955,60.739 244.426,60.739 243.780 C 60.739 243.133,60.559 242.493,60.340 242.358 C 60.120 242.222,59.940 241.682,59.940 241.159 C 59.940 240.635,59.760 240.096,59.540 239.960 C 59.321 239.824,59.141 239.195,59.141 238.561 C 59.141 237.928,58.961 237.299,58.741 237.163 C 58.521 237.027,58.342 236.308,58.342 235.564 C 58.342 234.821,58.162 234.102,57.942 233.966 C 57.722 233.830,57.542 233.136,57.542 232.424 C 57.542 231.712,57.381 230.958,57.184 230.749 C 56.987 230.540,56.724 229.650,56.600 228.771 C 56.476 227.892,56.181 226.094,55.944 224.775 C 54.844 218.656,54.155 212.462,54.480 211.614 C 54.798 210.787,144.150 210.643,144.975 211.469 " stroke="none" fill="#040404" fill-rule="evenodd"></path><path id="path3" d="M193.407 55.380 C 193.077 55.459,190.559 55.718,187.812 55.955 C 181.279 56.521,174.870 57.437,171.029 58.355 C 170.040 58.592,168.511 58.941,167.632 59.133 C 166.753 59.324,165.315 59.686,164.436 59.936 C 163.556 60.187,162.208 60.539,161.439 60.717 C 158.112 61.488,150.910 63.985,148.557 65.181 C 148.175 65.376,147.679 65.534,147.454 65.534 C 147.228 65.534,146.192 65.915,145.150 66.380 C 144.109 66.845,142.627 67.498,141.858 67.830 C 137.718 69.619,128.981 74.174,127.011 75.571 C 126.428 75.985,125.838 76.324,125.701 76.324 C 125.417 76.324,115.792 82.709,115.485 83.101 C 115.375 83.241,114.655 83.787,113.886 84.316 C 113.117 84.844,112.398 85.385,112.288 85.518 C 112.178 85.652,111.709 86.020,111.246 86.337 C 104.015 91.286,89.166 106.774,83.110 115.684 C 82.363 116.783,81.429 118.031,81.036 118.457 C 80.642 118.883,80.320 119.385,80.320 119.573 C 80.320 119.760,79.960 120.300,79.520 120.771 C 79.081 121.243,78.721 121.865,78.721 122.153 C 78.721 122.441,78.541 122.677,78.322 122.677 C 78.102 122.677,77.922 122.870,77.922 123.105 C 77.922 123.340,77.383 124.316,76.723 125.275 C 76.064 126.233,75.524 127.137,75.524 127.283 C 75.524 127.429,75.170 128.047,74.737 128.656 C 73.703 130.107,68.629 140.247,67.530 143.057 C 67.058 144.266,66.397 145.884,66.062 146.653 C 65.727 147.423,65.300 148.412,65.112 148.851 C 64.925 149.291,64.201 151.449,63.503 153.646 C 62.806 155.844,62.104 158.002,61.942 158.442 C 61.181 160.517,60.739 162.169,60.739 162.942 C 60.739 163.408,60.579 163.888,60.384 164.009 C 60.188 164.130,59.929 164.814,59.807 165.531 C 59.685 166.247,59.387 167.732,59.145 168.831 C 57.768 175.082,56.445 183.795,56.369 187.113 L 56.344 188.212 100.420 188.212 C 147.678 188.212,145.455 188.313,145.455 186.157 C 145.455 185.555,145.634 184.951,145.854 184.815 C 146.074 184.679,146.254 184.127,146.254 183.587 C 146.254 183.048,146.413 182.294,146.607 181.913 C 147.000 181.140,147.802 179.245,148.255 178.022 C 151.013 170.562,158.157 161.150,165.259 155.617 C 182.158 142.454,205.045 139.938,224.176 149.141 C 227.778 150.874,232.719 153.827,233.367 154.635 C 233.477 154.772,234.196 155.315,234.965 155.843 C 237.218 157.387,242.613 163.005,244.751 166.034 C 245.837 167.572,246.822 168.921,246.939 169.031 C 247.057 169.141,247.395 169.660,247.690 170.185 C 250.189 174.622,250.230 174.701,251.349 177.223 C 251.836 178.322,252.395 179.533,252.591 179.915 C 252.787 180.296,252.947 180.883,252.947 181.219 C 252.947 181.554,253.105 182.141,253.298 182.523 C 253.815 183.547,254.545 185.980,254.545 186.680 C 254.545 187.015,254.874 187.586,255.276 187.950 C 256.351 188.922,344.456 188.974,345.262 188.003 C 345.948 187.177,344.494 175.998,342.846 169.431 C 342.653 168.661,342.410 167.582,342.305 167.033 C 342.199 166.484,341.909 165.315,341.658 164.436 C 341.408 163.556,341.112 162.388,341.001 161.838 C 340.890 161.289,340.653 160.480,340.475 160.040 C 340.297 159.600,339.930 158.432,339.660 157.443 C 339.390 156.454,339.028 155.285,338.856 154.845 C 338.683 154.406,338.326 153.417,338.062 152.647 C 337.798 151.878,337.437 150.889,337.260 150.450 C 337.082 150.010,336.636 148.841,336.268 147.852 C 335.900 146.863,335.361 145.514,335.070 144.855 C 334.779 144.196,334.212 142.847,333.810 141.858 C 332.712 139.156,328.023 130.034,326.137 126.928 C 325.223 125.424,324.476 124.033,324.476 123.835 C 324.476 123.638,324.296 123.477,324.076 123.477 C 323.856 123.477,323.676 123.241,323.676 122.952 C 323.676 122.664,323.362 122.080,322.977 121.654 C 322.592 121.228,322.023 120.385,321.711 119.780 C 321.399 119.176,320.994 118.681,320.812 118.681 C 320.629 118.681,320.480 118.503,320.480 118.285 C 320.480 118.067,319.834 117.033,319.046 115.987 C 318.258 114.942,317.224 113.563,316.748 112.924 C 309.895 103.706,299.746 93.322,291.309 86.894 C 289.880 85.806,288.621 84.817,288.511 84.696 C 288.402 84.576,287.682 84.045,286.913 83.516 C 286.144 82.988,285.425 82.443,285.315 82.305 C 284.138 80.826,272.598 74.000,264.935 70.252 C 258.768 67.235,257.773 66.777,255.445 65.881 C 253.697 65.208,252.340 64.638,251.654 64.289 C 251.272 64.095,250.685 63.936,250.350 63.936 C 250.014 63.936,249.427 63.777,249.046 63.583 C 247.831 62.965,246.405 62.443,244.555 61.938 C 243.566 61.668,242.398 61.309,241.958 61.139 C 240.145 60.439,233.650 58.868,228.971 57.998 C 223.725 57.022,222.166 56.778,218.581 56.374 C 208.676 55.256,196.025 54.757,193.407 55.380 M213.387 56.333 C 222.507 57.091,231.342 58.683,239.760 61.085 C 240.529 61.305,241.608 61.602,242.158 61.745 C 242.707 61.888,243.516 62.149,243.956 62.325 C 244.396 62.502,245.564 62.878,246.553 63.161 C 247.542 63.444,248.522 63.824,248.731 64.006 C 248.940 64.187,249.437 64.336,249.836 64.336 C 250.234 64.336,250.873 64.495,251.254 64.689 C 251.636 64.883,252.398 65.218,252.947 65.434 C 253.497 65.650,254.396 66.017,254.945 66.249 C 255.495 66.481,256.747 67.000,257.729 67.401 C 261.042 68.757,270.315 73.388,273.070 75.061 C 274.575 75.975,275.883 76.723,275.978 76.723 C 276.499 76.723,290.460 86.527,291.309 87.489 C 291.419 87.613,293.037 89.008,294.905 90.588 C 303.038 97.467,312.817 107.983,317.684 115.085 C 318.211 115.854,318.757 116.573,318.896 116.683 C 319.291 116.996,324.076 124.215,324.076 124.498 C 324.076 124.638,324.415 125.229,324.828 125.812 C 327.327 129.335,332.903 140.575,335.464 147.253 C 336.054 148.791,336.691 150.410,336.879 150.849 C 337.068 151.289,337.614 152.907,338.094 154.446 C 338.574 155.984,339.107 157.602,339.280 158.042 C 339.452 158.482,339.711 159.291,339.854 159.840 C 339.997 160.390,340.294 161.469,340.513 162.238 C 342.419 168.914,344.272 179.067,344.963 186.613 L 345.055 187.612 300.899 187.722 C 254.682 187.837,254.945 187.843,254.945 186.659 C 254.945 180.557,246.714 166.306,238.846 158.784 C 208.230 129.515,155.337 144.247,145.385 184.815 C 145.115 185.914,144.728 187.039,144.525 187.314 C 144.231 187.712,135.147 187.795,100.549 187.714 L 56.943 187.612 57.056 185.015 C 57.163 182.542,57.583 179.370,58.326 175.425 C 59.136 171.120,59.627 168.726,60.003 167.233 C 60.224 166.354,60.565 165.005,60.759 164.236 C 63.710 152.562,71.506 133.678,75.949 127.438 C 76.375 126.840,76.723 126.238,76.723 126.100 C 76.723 125.694,83.053 116.344,85.615 112.967 C 91.170 105.642,100.071 96.253,107.294 90.097 C 111.213 86.758,119.282 80.719,119.827 80.719 C 120.076 80.719,120.280 80.570,120.280 80.387 C 120.280 80.205,120.774 79.800,121.379 79.489 C 121.983 79.177,122.567 78.825,122.677 78.707 C 124.228 77.033,138.915 69.473,146.311 66.540 C 149.466 65.289,152.360 64.101,152.742 63.901 C 153.123 63.700,153.787 63.536,154.217 63.536 C 154.646 63.536,155.109 63.357,155.245 63.137 C 155.381 62.917,155.843 62.737,156.273 62.737 C 156.702 62.737,157.366 62.580,157.748 62.387 C 158.902 61.803,161.243 61.139,162.143 61.139 C 162.609 61.139,163.089 60.979,163.209 60.783 C 163.330 60.588,164.015 60.328,164.732 60.206 C 165.448 60.084,166.888 59.795,167.932 59.563 C 168.976 59.331,170.684 58.952,171.728 58.720 C 176.765 57.603,182.240 56.860,189.211 56.345 C 192.288 56.118,195.075 55.853,195.405 55.756 C 196.258 55.506,207.942 55.880,213.387 56.333 " stroke="none" fill="#611313" fill-rule="evenodd"></path><path id="path4" d="" stroke="none" fill="#747474" fill-rule="evenodd"></path><path id="path5" d="M218.981 172.733 C 218.981 172.821,219.745 173.501,220.679 174.243 C 221.613 174.985,222.124 175.277,221.814 174.890 C 221.230 174.163,218.981 172.451,218.981 172.733 M225.529 179.139 C 226.376 180.173,227.153 181.019,227.255 181.019 C 227.527 181.019,224.996 177.883,224.453 177.547 C 224.198 177.389,224.682 178.106,225.529 179.139 M227.732 182.018 C 228.406 183.321,228.959 184.044,228.956 183.616 C 228.955 183.397,228.586 182.767,228.136 182.218 C 227.593 181.554,227.458 181.487,227.732 182.018 M170.011 185.452 C 169.659 186.131,169.443 186.759,169.529 186.845 C 169.616 186.932,169.986 186.376,170.351 185.609 C 171.173 183.886,170.889 183.754,170.011 185.452 M167.157 196.404 C 167.159 197.722,167.234 198.214,167.323 197.495 C 167.412 196.777,167.410 195.698,167.318 195.098 C 167.227 194.497,167.155 195.085,167.157 196.404 M232.695 197.003 C 232.695 198.432,232.768 199.016,232.857 198.302 C 232.945 197.587,232.945 196.419,232.857 195.704 C 232.768 194.990,232.695 195.574,232.695 197.003 M167.164 202.398 C 167.166 203.936,167.238 204.516,167.325 203.687 C 167.411 202.858,167.410 201.600,167.321 200.890 C 167.233 200.181,167.162 200.859,167.164 202.398 M232.691 203.197 C 232.693 204.515,232.768 205.007,232.857 204.289 C 232.946 203.570,232.944 202.491,232.853 201.891 C 232.762 201.290,232.689 201.878,232.691 203.197 M55.007 211.688 C 54.905 211.853,74.879 211.942,99.394 211.885 C 134.733 211.803,144.099 211.885,144.610 212.284 C 145.182 212.731,145.193 212.709,144.706 212.088 C 144.126 211.347,55.462 210.952,55.007 211.688 M255.294 212.088 C 254.807 212.708,254.818 212.731,255.388 212.286 C 255.896 211.890,265.094 211.806,299.344 211.886 L 342.657 211.988 342.872 213.586 L 343.087 215.185 343.292 213.686 C 343.404 212.862,343.316 212.008,343.097 211.788 C 342.281 210.973,255.937 211.268,255.294 212.088 M145.061 213.820 C 145.064 214.351,145.244 215.055,145.460 215.385 C 145.737 215.806,145.777 215.569,145.596 214.585 C 145.280 212.862,145.053 212.537,145.061 213.820 M55.238 216.983 C 55.238 217.752,55.320 218.067,55.420 217.682 C 55.521 217.298,55.521 216.668,55.420 216.284 C 55.320 215.899,55.238 216.214,55.238 216.983 M228.025 217.083 L 227.306 218.382 228.130 217.383 C 228.860 216.497,229.184 215.784,228.857 215.784 C 228.795 215.784,228.420 216.369,228.025 217.083 M342.307 218.797 C 342.170 219.154,342.074 219.836,342.094 220.312 C 342.120 220.926,342.243 220.788,342.516 219.836 C 342.914 218.453,342.751 217.640,342.307 218.797 M225.529 220.461 C 224.682 221.495,224.198 222.211,224.453 222.054 C 224.996 221.718,227.527 218.581,227.255 218.581 C 227.153 218.581,226.376 219.427,225.529 220.461 M176.424 222.977 C 177.728 224.296,178.886 225.375,178.996 225.375 C 179.106 225.375,178.128 224.296,176.823 222.977 C 175.518 221.658,174.361 220.579,174.251 220.579 C 174.141 220.579,175.119 221.658,176.424 222.977 M341.459 224.176 C 341.307 224.867,341.273 225.522,341.382 225.632 C 341.492 225.741,341.706 225.266,341.858 224.575 C 342.010 223.885,342.044 223.230,341.934 223.120 C 341.824 223.010,341.610 223.485,341.459 224.176 M56.588 226.374 C 56.916 227.843,57.145 228.162,57.137 227.140 C 57.133 226.718,56.948 226.104,56.725 225.774 C 56.429 225.336,56.392 225.498,56.588 226.374 M180.089 226.206 C 180.585 226.806,183.017 228.336,183.017 228.048 C 183.017 227.955,182.253 227.374,181.319 226.758 C 180.385 226.142,179.831 225.894,180.089 226.206 M216.583 228.208 C 215.920 228.750,215.853 228.886,216.384 228.612 C 217.687 227.938,218.410 227.385,217.982 227.388 C 217.762 227.389,217.133 227.758,216.583 228.208 M340.733 227.925 C 340.582 228.316,340.471 228.937,340.485 229.303 C 340.502 229.745,340.640 229.644,340.896 229.005 C 341.108 228.475,341.220 227.854,341.144 227.627 C 341.068 227.399,340.883 227.534,340.733 227.925 M57.387 230.370 C 57.715 231.839,57.944 232.158,57.936 231.136 C 57.933 230.714,57.747 230.100,57.524 229.770 C 57.228 229.332,57.191 229.494,57.387 230.370 M339.927 231.635 C 339.780 231.782,339.672 232.276,339.686 232.734 C 339.709 233.499,339.742 233.489,340.094 232.609 C 340.485 231.631,340.404 231.158,339.927 231.635 M197.103 232.843 C 197.488 232.943,198.117 232.943,198.501 232.843 C 198.886 232.742,198.571 232.660,197.802 232.660 C 197.033 232.660,196.718 232.742,197.103 232.843 M201.499 232.843 C 201.883 232.943,202.512 232.943,202.897 232.843 C 203.282 232.742,202.967 232.660,202.198 232.660 C 201.429 232.660,201.114 232.742,201.499 232.843 M339.128 234.832 C 338.981 234.978,338.873 235.473,338.886 235.931 C 338.910 236.696,338.943 236.686,339.295 235.806 C 339.686 234.828,339.605 234.355,339.128 234.832 M58.985 236.763 C 59.314 238.233,59.543 238.551,59.534 237.529 C 59.531 237.108,59.346 236.494,59.123 236.164 C 58.826 235.726,58.789 235.888,58.985 236.763 M242.333 237.063 L 241.159 238.362 242.458 237.188 C 243.172 236.542,243.756 235.958,243.756 235.889 C 243.756 235.581,243.427 235.852,242.333 237.063 M237.138 242.258 L 235.964 243.556 237.263 242.383 C 237.977 241.737,238.561 241.153,238.561 241.084 C 238.561 240.775,238.232 241.047,237.138 242.258 M162.837 242.524 C 163.614 243.417,165.834 245.153,165.834 244.867 C 165.834 244.789,164.980 244.023,163.936 243.165 C 162.892 242.307,162.398 242.018,162.837 242.524 M166.902 245.786 C 167.398 246.386,169.830 247.916,169.830 247.628 C 169.830 247.535,169.066 246.955,168.132 246.339 C 167.198 245.723,166.645 245.474,166.902 245.786 M224.575 250.549 C 223.806 250.971,223.321 251.323,223.496 251.332 C 223.920 251.354,226.174 250.182,226.174 249.940 C 226.174 249.678,226.150 249.687,224.575 250.549 M334.224 250.450 C 334.105 250.834,333.841 251.461,333.637 251.843 C 333.433 252.224,333.268 252.764,333.269 253.042 C 333.272 253.662,334.239 251.860,334.558 250.638 C 334.831 249.593,334.540 249.428,334.224 250.450 M63.754 251.449 C 63.904 251.943,64.190 252.523,64.391 252.738 C 64.592 252.953,64.555 252.548,64.307 251.839 C 63.801 250.387,63.334 250.057,63.754 251.449 M332.505 254.645 C 332.317 255.140,331.891 256.174,331.558 256.943 C 331.225 257.712,330.662 259.016,330.306 259.840 C 329.951 260.664,329.744 261.339,329.846 261.339 C 330.046 261.339,331.263 258.724,332.495 255.644 C 332.913 254.600,333.163 253.746,333.051 253.746 C 332.939 253.746,332.693 254.151,332.505 254.645 M209.990 255.345 C 209.486 255.561,209.412 255.688,209.790 255.688 C 210.120 255.688,210.749 255.534,211.189 255.345 C 211.693 255.128,211.766 255.001,211.389 255.001 C 211.059 255.001,210.430 255.156,209.990 255.345 M193.806 256.156 C 194.800 256.462,199.685 256.675,199.367 256.398 C 199.276 256.318,197.762 256.162,196.004 256.050 C 194.246 255.939,193.257 255.987,193.806 256.156 M202.997 256.144 L 200.400 256.406 202.797 256.435 C 204.116 256.451,205.644 256.320,206.194 256.144 C 207.393 255.760,206.810 255.760,202.997 256.144 M323.890 271.963 C 323.518 272.531,323.304 273.087,323.415 273.199 C 323.526 273.310,323.905 272.845,324.257 272.165 C 325.034 270.662,324.820 270.544,323.890 271.963 M320.338 277.717 C 319.317 279.253,318.482 280.645,318.482 280.809 C 318.482 280.974,319.081 280.212,319.814 279.116 C 322.113 275.679,322.575 274.925,322.382 274.925 C 322.279 274.925,321.360 276.182,320.338 277.717 M317.575 281.820 C 317.462 282.115,316.446 283.561,315.317 285.034 C 314.188 286.507,313.404 287.705,313.575 287.697 C 313.859 287.683,314.483 286.877,317.218 282.986 C 317.732 282.255,318.069 281.572,317.967 281.470 C 317.865 281.368,317.688 281.525,317.575 281.820 M81.955 284.515 C 83.113 286.310,83.117 286.314,83.115 285.881 C 83.114 285.679,82.649 284.975,82.083 284.316 L 81.053 283.117 81.955 284.515 M311.510 289.910 C 310.699 290.899,310.163 291.708,310.319 291.708 C 310.600 291.708,310.968 291.291,312.521 289.211 C 313.835 287.450,313.121 287.944,311.510 289.910 M87.512 291.833 C 87.512 291.902,88.097 292.487,88.811 293.132 L 90.110 294.306 88.936 293.007 C 87.842 291.796,87.512 291.525,87.512 291.833 M307.441 294.787 C 306.151 296.260,305.301 297.340,305.553 297.186 C 306.118 296.842,310.243 292.108,309.978 292.108 C 309.874 292.108,308.732 293.313,307.441 294.787 M92.507 297.303 C 93.590 298.402,94.565 299.301,94.675 299.301 C 94.785 299.301,93.989 298.402,92.907 297.303 C 91.825 296.204,90.849 295.305,90.739 295.305 C 90.629 295.305,91.425 296.204,92.507 297.303 M302.158 300.380 C 301.641 300.914,301.296 301.429,301.390 301.523 C 301.485 301.618,301.983 301.247,302.498 300.699 C 303.012 300.152,303.357 299.637,303.265 299.556 C 303.173 299.474,302.674 299.845,302.158 300.380 M100.899 305.694 C 101.758 306.573,102.550 307.293,102.660 307.293 C 102.770 307.293,102.157 306.573,101.299 305.694 C 100.440 304.815,99.648 304.096,99.538 304.096 C 99.428 304.096,100.041 304.815,100.899 305.694 M295.904 306.385 C 294.585 307.598,292.095 309.737,290.370 311.138 C 288.644 312.540,287.386 313.680,287.572 313.672 C 288.206 313.646,298.723 304.572,298.432 304.302 C 298.360 304.235,297.223 305.173,295.904 306.385 M103.896 308.217 C 103.896 308.286,104.481 308.870,105.195 309.516 L 106.494 310.689 105.320 309.391 C 104.226 308.180,103.896 307.908,103.896 308.217 M110.868 314.051 C 111.168 314.538,114.685 317.015,114.685 316.740 C 114.685 316.640,113.767 315.899,112.646 315.093 C 111.524 314.287,110.724 313.818,110.868 314.051 M284.221 315.809 C 283.510 316.290,282.925 316.827,282.922 317.003 C 282.919 317.179,283.546 316.843,284.316 316.257 C 285.085 315.670,285.714 315.121,285.714 315.037 C 285.714 314.813,285.633 314.855,284.221 315.809 M273.726 322.910 L 272.727 323.724 274.026 323.091 C 274.740 322.742,275.325 322.372,275.325 322.267 C 275.325 321.870,274.688 322.126,273.726 322.910 M264.180 328.082 C 259.039 330.740,257.476 331.650,259.153 331.011 C 260.468 330.510,269.104 326.032,269.510 325.640 C 270.154 325.021,269.701 325.228,264.180 328.082 M254.239 332.647 C 252.647 333.526,252.695 333.772,254.325 333.096 C 255.193 332.736,255.987 332.358,256.090 332.255 C 256.469 331.876,255.116 332.162,254.239 332.647 M236.164 338.861 C 235.631 339.205,235.631 339.249,236.164 339.249 C 236.494 339.249,237.033 339.074,237.363 338.861 C 237.895 338.517,237.895 338.474,237.363 338.474 C 237.033 338.474,236.494 338.648,236.164 338.861 M229.770 340.478 C 229.332 340.774,229.494 340.811,230.370 340.615 C 231.839 340.287,232.158 340.058,231.136 340.066 C 230.714 340.069,230.100 340.255,229.770 340.478 M170.829 341.259 C 171.269 341.448,171.898 341.602,172.228 341.602 C 172.606 341.602,172.532 341.475,172.028 341.259 C 171.588 341.070,170.959 340.915,170.629 340.915 C 170.252 340.915,170.325 341.042,170.829 341.259 M225.974 341.259 C 225.470 341.475,225.396 341.602,225.774 341.602 C 226.104 341.602,226.733 341.448,227.173 341.259 C 227.677 341.042,227.750 340.915,227.373 340.915 C 227.043 340.915,226.414 341.070,225.974 341.259 M175.425 342.058 C 176.791 342.496,177.841 342.496,176.823 342.058 C 176.384 341.869,175.664 341.720,175.225 341.726 C 174.582 341.736,174.621 341.801,175.425 342.058 M221.179 342.058 C 220.161 342.496,221.211 342.496,222.577 342.058 C 223.381 341.801,223.420 341.736,222.777 341.726 C 222.338 341.720,221.618 341.869,221.179 342.058 M188.516 343.539 C 189.013 343.635,189.732 343.631,190.115 343.531 C 190.497 343.431,190.090 343.353,189.211 343.358 C 188.332 343.362,188.019 343.444,188.516 343.539 M208.097 343.539 C 208.594 343.635,209.313 343.631,209.695 343.531 C 210.077 343.431,209.670 343.353,208.791 343.358 C 207.912 343.362,207.599 343.444,208.097 343.539 M192.918 343.949 C 193.858 344.034,195.296 344.033,196.114 343.947 C 196.933 343.861,196.164 343.792,194.406 343.793 C 192.647 343.795,191.978 343.865,192.918 343.949 M202.108 343.949 C 203.048 344.034,204.487 344.033,205.305 343.947 C 206.124 343.861,205.355 343.792,203.596 343.793 C 201.838 343.795,201.169 343.865,202.108 343.949 " stroke="none" fill="#7c7c7c" fill-rule="evenodd"></path><path id="path6" d="M199.106 166.521 C 199.714 166.612,200.613 166.610,201.104 166.515 C 201.596 166.420,201.099 166.345,200.000 166.348 C 198.901 166.351,198.499 166.429,199.106 166.521 M342.950 216.583 C 342.950 217.353,343.032 217.667,343.133 217.283 C 343.233 216.898,343.233 216.269,343.133 215.884 C 343.032 215.500,342.950 215.814,342.950 216.583 M176.224 223.177 C 176.969 223.946,177.669 224.575,177.779 224.575 C 177.889 224.575,177.369 223.946,176.623 223.177 C 175.878 222.408,175.178 221.778,175.068 221.778 C 174.958 221.778,175.478 222.408,176.224 223.177 M306.269 296.603 L 305.095 297.902 306.394 296.728 C 307.604 295.634,307.876 295.305,307.567 295.305 C 307.498 295.305,306.914 295.889,306.269 296.603 M98.701 303.821 C 98.701 303.890,99.286 304.475,100.000 305.120 L 101.299 306.294 100.125 304.995 C 99.031 303.784,98.701 303.513,98.701 303.821 M185.115 343.532 C 185.500 343.633,186.129 343.633,186.513 343.532 C 186.898 343.432,186.583 343.349,185.814 343.349 C 185.045 343.349,184.730 343.432,185.115 343.532 M211.489 343.532 C 211.873 343.633,212.502 343.633,212.887 343.532 C 213.272 343.432,212.957 343.349,212.188 343.349 C 211.419 343.349,211.104 343.432,211.489 343.532 " stroke="none" fill="#646464" fill-rule="evenodd"></path><path id="path7" d="M77.453 211.289 C 89.833 211.347,109.973 211.347,122.209 211.289 C 134.444 211.230,124.316 211.182,99.700 211.182 C 75.085 211.182,65.074 211.230,77.453 211.289 M277.392 211.289 C 289.408 211.347,309.188 211.347,321.348 211.289 C 333.508 211.230,323.676 211.182,299.500 211.182 C 275.325 211.182,265.376 211.230,277.392 211.289 M198.493 233.255 C 199.202 233.344,200.461 233.345,201.290 233.259 C 202.119 233.172,201.538 233.100,200.000 233.098 C 198.462 233.096,197.783 233.167,198.493 233.255 M197.303 344.349 C 198.237 344.433,199.765 344.433,200.699 344.349 C 201.633 344.264,200.869 344.196,199.001 344.196 C 197.133 344.196,196.369 344.264,197.303 344.349 " stroke="none" fill="#3c3c3c" fill-rule="evenodd"></path><path id="path8" d="M233.459 200.200 C 233.459 200.969,233.542 201.284,233.642 200.899 C 233.743 200.514,233.743 199.885,233.642 199.500 C 233.542 199.116,233.459 199.431,233.459 200.200 M343.625 212.488 C 343.816 213.867,343.844 213.895,343.975 212.838 C 344.054 212.207,343.961 211.533,343.768 211.340 C 343.567 211.139,343.506 211.629,343.625 212.488 M157.842 237.088 C 157.842 237.157,158.427 237.741,159.141 238.387 L 160.440 239.560 159.266 238.262 C 158.172 237.051,157.842 236.779,157.842 237.088 M198.908 256.034 C 199.626 256.123,200.705 256.121,201.306 256.030 C 201.906 255.939,201.319 255.866,200.000 255.868 C 198.681 255.870,198.190 255.945,198.908 256.034 M96.503 302.098 C 98.693 304.296,100.574 306.094,100.684 306.094 C 100.794 306.094,99.093 304.296,96.903 302.098 C 94.714 299.900,92.832 298.102,92.722 298.102 C 92.612 298.102,94.314 299.900,96.503 302.098 M297.487 305.794 L 295.504 307.892 297.602 305.909 C 298.756 304.818,299.700 303.874,299.700 303.811 C 299.700 303.513,299.330 303.845,297.487 305.794 M101.898 307.018 C 101.898 307.087,102.483 307.671,103.197 308.317 L 104.496 309.491 103.322 308.192 C 102.228 306.981,101.898 306.709,101.898 307.018 M191.699 344.344 C 192.409 344.433,193.668 344.434,194.497 344.348 C 195.326 344.261,194.745 344.189,193.207 344.187 C 191.668 344.185,190.990 344.256,191.699 344.344 M203.288 344.344 C 203.997 344.433,205.256 344.434,206.085 344.348 C 206.914 344.261,206.334 344.189,204.795 344.187 C 203.257 344.185,202.578 344.256,203.288 344.344 " stroke="none" fill="#343434" fill-rule="evenodd"></path></g></svg>